<?xml version="1.0" standalone="no"?>
<!DOCTYPE svg PUBLIC "-//W3C//DTD SVG 20010904//EN"
 "http://www.w3.org/TR/2001/REC-SVG-20010904/DTD/svg10.dtd">
<svg version="1.0" xmlns="http://www.w3.org/2000/svg"
 width="700.000000pt" height="700.000000pt" viewBox="0 0 700.000000 700.000000"
 preserveAspectRatio="xMidYMid meet">
<metadata>
Created by potrace 1.11, written by Peter Selinger 2001-2013
</metadata>
<g transform="translate(0.000000,700.000000) scale(0.100000,-0.100000)"
fill="#000000" stroke="none">
<path d="M3936 6984 c-9 -8 -16 -29 -16 -45 0 -25 -4 -29 -27 -30 -83 -2 -159
-32 -179 -70 -27 -53 5 -137 68 -173 25 -15 27 -20 21 -66 -7 -58 6 -79 72
-113 30 -16 60 -21 122 -21 82 -1 83 -1 83 -27 0 -29 34 -79 54 -79 7 0 23
-11 36 -24 42 -45 160 -67 223 -41 14 6 17 1 17 -31 0 -39 1 -39 70 -67 39
-16 70 -33 70 -38 0 -54 68 -135 128 -154 23 -7 23 -7 -11 -40 -19 -18 -37
-46 -41 -62 -4 -17 -31 -49 -66 -80 l-59 -53 -125 62 c-88 44 -123 66 -121 77
5 25 19 154 20 175 0 16 -24 28 -143 68 -79 26 -148 46 -152 43 -5 -3 -27 -38
-49 -78 -61 -109 -59 -108 -106 -96 -22 5 -80 15 -129 22 -98 14 -96 12 -110
97 -12 76 -20 106 -29 118 -7 8 -50 12 -153 12 -127 0 -143 -2 -148 -17 -3
-10 -12 -57 -22 -104 l-16 -86 -131 -22 c-152 -25 -132 -34 -199 87 -22 39
-45 72 -51 72 -7 0 -74 -21 -149 -46 l-137 -45 4 -37 c2 -20 7 -69 10 -108 l7
-71 -120 -61 c-113 -57 -121 -59 -139 -44 -88 80 -138 122 -146 122 -5 0 -23
-10 -39 -22 -17 -12 -29 -17 -27 -12 52 129 59 139 111 158 127 45 574 266
678 334 149 99 242 212 263 319 5 27 2 36 -16 47 -19 13 -64 23 -115 25 -9 1
-7 10 9 32 12 17 27 50 35 75 13 43 13 44 -14 62 -20 13 -47 17 -122 17 -111
-1 -138 -5 -245 -40 -226 -74 -460 -226 -635 -411 -78 -84 -196 -237 -224
-292 -10 -19 -20 -32 -22 -29 -3 3 1 18 9 34 49 94 138 333 140 374 3 71 -30
95 -96 70 -19 -7 -112 -74 -175 -126 -34 -28 -172 -200 -220 -275 -65 -100
-190 -346 -238 -469 l-33 -86 1 80 c2 146 -20 215 -68 215 -37 0 -129 -97
-234 -244 -151 -211 -207 -317 -274 -516 -54 -165 -80 -288 -102 -485 -2 -22
-7 -58 -9 -80 -7 -49 -7 -251 -1 -285 3 -14 7 -43 10 -65 25 -206 126 -471
209 -550 30 -28 50 -58 64 -100 43 -120 84 -274 88 -325 3 -38 11 -60 27 -79
29 -32 37 -50 78 -171 17 -52 47 -127 66 -165 22 -44 33 -79 30 -95 -2 -14 -5
-47 -6 -75 0 -34 -3 -45 -9 -35 -5 8 -44 110 -86 225 -191 524 -338 831 -447
933 -60 55 -137 30 -159 -51 -10 -38 -5 -359 6 -376 1 -3 6 -31 9 -62 7 -66
52 -231 96 -349 49 -133 123 -278 199 -391 80 -119 356 -447 422 -500 80 -65
137 -92 188 -91 l47 1 49 -72 c79 -115 250 -320 284 -340 17 -10 40 -20 52
-22 11 -2 37 -23 58 -46 36 -40 41 -43 94 -44 55 0 60 -3 119 -55 34 -30 79
-68 100 -83 21 -16 38 -34 38 -40 0 -6 -15 -52 -32 -103 l-33 -92 -45 -6 c-77
-10 -152 -17 -225 -20 l-70 -3 -125 87 c-69 48 -159 111 -200 139 -41 29 -78
58 -82 65 -4 7 -8 80 -9 162 -2 133 0 154 19 198 27 59 27 70 4 108 -20 34
-124 89 -174 91 -27 2 -34 -2 -36 -20 -2 -17 3 -23 27 -28 l31 -7 -25 -32
c-14 -18 -25 -40 -25 -49 0 -9 -3 -18 -8 -21 -4 -2 -88 -7 -187 -11 -293 -11
-295 -12 -281 -205 5 -63 -37 -178 -108 -295 -20 -33 -36 -72 -36 -86 0 -55
133 -208 272 -313 210 -158 882 -526 960 -526 32 0 234 25 287 35 14 2 45 7
70 10 25 3 57 7 71 10 14 3 45 8 70 11 25 3 82 11 127 18 70 11 83 11 87 -1
10 -26 7 -30 -64 -77 -84 -56 -128 -76 -173 -76 -43 0 -60 -19 -60 -71 0 -30
7 -47 29 -70 15 -16 33 -29 40 -29 7 0 23 -13 36 -29 13 -16 54 -49 93 -72 59
-35 80 -43 135 -46 82 -5 125 15 158 78 46 88 248 272 320 291 64 17 118 54
131 90 7 18 16 39 20 47 10 20 142 111 161 111 9 0 48 -16 89 -35 96 -46 136
-46 226 1 68 36 69 36 104 19 117 -55 411 -285 411 -321 0 -8 16 -31 35 -53
26 -29 50 -42 93 -55 55 -15 60 -19 82 -66 13 -27 31 -52 41 -55 66 -21 138
-7 217 43 26 16 64 35 84 42 42 13 88 61 88 92 0 24 -35 58 -60 58 -36 0 -371
203 -357 216 3 3 31 1 63 -5 56 -10 100 -16 189 -27 22 -2 56 -6 75 -9 45 -6
98 -12 180 -21 89 -9 104 -11 187 -18 40 -4 90 -8 110 -10 21 -2 83 -7 138
-11 96 -6 102 -5 155 22 69 35 815 566 854 608 33 36 111 153 120 182 4 14 -5
38 -32 79 -72 109 -112 237 -112 358 0 77 -25 119 -80 135 -8 2 -87 5 -175 5
-205 2 -207 3 -205 69 3 92 2 97 -22 97 -46 0 -162 -46 -195 -76 -39 -37 -41
-60 -8 -105 41 -57 47 -79 40 -158 -7 -78 -12 -127 -20 -170 -14 -82 -16 -95
-18 -96 -1 0 -24 -19 -52 -40 -94 -76 -220 -166 -275 -198 -50 -29 -62 -32
-135 -30 -115 3 -244 28 -268 52 -11 11 -30 50 -43 87 l-23 68 102 68 c78 52
116 71 161 79 63 13 96 39 96 76 0 13 10 29 24 38 13 9 31 31 39 48 9 18 24
41 34 52 10 11 56 65 101 120 113 136 182 186 281 201 129 21 238 64 367 146
65 41 77 61 64 108 -8 27 -2 35 101 140 60 62 118 129 129 150 23 46 33 111
21 142 -7 19 1 36 47 98 30 41 69 104 86 140 29 60 31 73 31 172 l0 107 42 30
c23 17 50 42 59 56 23 36 22 106 -3 141 -19 27 -19 32 -6 69 24 68 27 154 8
205 -12 31 -17 70 -16 127 2 91 -20 162 -57 182 -33 18 -94 13 -132 -10 -20
-13 -50 -21 -69 -21 -35 2 -63 -9 -113 -42 l-28 -18 3 36 c3 30 11 42 43 63
21 15 45 33 52 40 24 23 43 85 49 152 5 72 38 153 102 256 38 61 59 110 55
133 -1 6 -2 18 -3 25 -2 21 -42 35 -86 30 l-40 -4 31 33 c81 87 90 153 35 262
-32 62 -43 71 -83 68 -14 -1 -15 4 -7 32 13 46 6 87 -31 186 -17 47 -33 105
-36 130 -10 81 -33 129 -67 138 -25 7 -32 15 -43 57 -21 84 -69 178 -110 218
-33 32 -44 37 -69 32 -28 -5 -35 0 -75 48 -62 74 -112 109 -168 115 -50 5 -62
14 -62 48 0 11 -11 43 -25 70 -14 27 -37 83 -52 124 -46 132 -84 159 -130 92
l-22 -33 -11 43 c-40 157 -87 208 -193 208 -30 0 -68 7 -83 15 -16 8 -37 15
-47 15 -10 0 -20 7 -23 15 -3 8 -29 26 -58 40 -43 21 -57 23 -85 15 -19 -5
-42 -17 -52 -26 -11 -10 -19 -15 -20 -13 -7 41 -11 55 -23 84 -20 47 -56 63
-102 46 -34 -12 -35 -12 -102 49 -176 162 -288 220 -358 184 -25 -13 -30 -12
-65 12 -38 26 -161 64 -211 64 -15 0 -34 -7 -42 -16z m224 -104 c84 -41 91
-42 108 -27 26 24 60 21 117 -10 73 -38 141 -91 221 -170 62 -62 73 -69 94
-61 31 12 67 3 79 -20 5 -9 11 -36 13 -59 l5 -41 -38 20 c-40 21 -78 20 -133
-1 -22 -9 -37 -9 -56 -1 -34 14 -104 105 -147 189 -25 51 -33 60 -33 40 0 -36
23 -98 54 -148 34 -53 21 -53 -81 -1 -87 46 -108 63 -201 173 -42 50 -68 73
-73 66 -8 -13 30 -79 65 -113 11 -12 28 -30 36 -41 13 -18 13 -19 0 -8 -26 19
-182 80 -240 93 -85 19 -105 7 -25 -14 72 -19 195 -72 230 -99 19 -14 17 -16
-35 -31 -59 -17 -106 -24 -180 -25 -33 -1 -41 -4 -30 -11 21 -14 153 -12 233
4 l68 13 109 -46 c60 -25 109 -49 110 -53 0 -4 -12 -11 -26 -14 -31 -8 -111
-51 -119 -65 -10 -16 11 -10 65 17 55 28 169 39 189 19 5 -5 12 -32 15 -60 6
-60 21 -112 37 -131 9 -11 6 -16 -12 -23 -13 -5 -26 -7 -29 -6 -3 1 -26 12
-53 24 -47 21 -47 22 -42 62 5 39 4 41 -17 36 -102 -25 -156 -17 -218 28 -19
14 -44 25 -57 25 -24 0 -33 21 -30 75 l2 30 -90 0 c-89 1 -118 8 -157 43 -22
18 -23 60 -3 88 13 20 12 22 -25 39 -82 37 -108 100 -57 139 24 18 41 21 107
20 l79 -1 -6 45 -6 45 46 -5 c26 -3 87 -25 137 -48z m-1169 0 c28 -16 24 -36
-23 -101 -35 -46 -50 -59 -78 -64 -107 -18 -331 -145 -545 -306 -143 -108
-153 -114 -210 -120 -33 -4 -69 -10 -80 -15 -22 -8 96 90 230 191 113 85 290
201 382 251 40 21 83 47 95 57 l23 18 -30 -7 c-35 -8 -254 -121 -335 -172 -76
-48 -339 -235 -375 -267 -16 -15 -46 -41 -64 -58 -19 -17 -51 -45 -70 -62
l-36 -30 24 30 c72 94 221 251 316 335 169 148 403 269 596 309 96 20 156 24
180 11z m96 -193 c14 -9 2 -56 -23 -96 -53 -83 -242 -217 -451 -320 -348 -171
-404 -197 -409 -190 -13 22 406 317 637 447 31 18 63 40 70 49 43 51 -202 -62
-341 -158 -82 -56 -366 -242 -377 -246 -20 -8 -15 14 10 39 36 39 195 169 292
240 179 131 322 212 410 233 52 13 163 14 182 2z m-1307 -390 c-90 -227 -135
-319 -248 -502 -115 -188 -279 -418 -360 -507 -20 -23 -48 -53 -61 -67 -13
-14 -35 -43 -49 -63 -13 -21 -26 -38 -28 -38 -13 0 16 58 70 139 79 119 151
250 296 544 62 126 146 278 186 338 77 116 96 153 71 143 -19 -7 -128 -156
-198 -269 -84 -135 -93 -150 -170 -296 -39 -74 -69 -127 -66 -119 6 19 33 92
55 145 8 22 53 117 98 212 132 276 299 500 439 592 l50 32 3 -26 c2 -15 -34
-121 -88 -258z m3200 225 c0 -4 -15 -12 -32 -17 -53 -16 -78 -64 -78 -151 l0
-73 -37 39 c-21 22 -56 47 -78 56 l-40 16 25 -28 c14 -15 38 -41 54 -58 15
-17 36 -43 47 -57 l18 -26 -48 -27 c-42 -22 -79 -33 -129 -35 -7 -1 -10 -5 -7
-11 3 -5 30 -8 60 -6 52 4 55 3 56 -20 1 -13 2 -27 4 -31 1 -5 5 -25 9 -45 5
-23 25 -55 51 -84 43 -46 48 -69 17 -78 -24 -8 -145 -1 -160 8 -19 11 -14 43
9 60 11 8 27 23 35 34 13 19 10 23 -44 56 -55 33 -102 92 -102 127 0 8 17 23
38 34 45 24 54 63 23 97 -23 24 -41 77 -41 120 0 57 79 73 156 33 33 -17 54
-19 54 -5 0 5 16 25 35 45 27 27 44 35 70 35 19 0 35 -4 35 -8z m177 -120 c28
-20 29 -20 41 -2 14 23 54 21 81 -4 25 -22 59 -102 82 -189 9 -38 19 -70 21
-71 2 -1 15 -7 30 -13 25 -11 28 -10 47 22 27 46 44 38 71 -35 12 -33 29 -65
37 -71 22 -19 41 -73 49 -137 5 -47 3 -63 -14 -92 -11 -19 -24 -52 -28 -74 -6
-34 -8 -36 -17 -20 -17 30 -36 143 -37 213 0 35 -2 62 -4 60 -7 -7 -15 -81
-16 -133 l0 -50 -37 45 c-21 24 -67 76 -104 114 -37 39 -70 81 -74 95 -7 22
-12 92 -14 183 -1 16 -5 26 -10 22 -5 -3 -8 -50 -6 -105 l3 -99 -57 67 c-32
37 -81 98 -109 136 -29 38 -52 66 -52 61 0 -28 148 -231 228 -314 19 -18 32
-34 30 -36 -4 -4 -210 40 -249 54 -47 16 -64 15 -46 -4 9 -8 57 -26 109 -41
146 -40 211 -63 240 -82 37 -24 115 -125 141 -182 11 -25 22 -48 24 -52 2 -4
-20 3 -49 16 -52 22 -181 60 -245 71 -18 3 -55 14 -83 25 -27 11 -50 18 -50
16 0 -15 72 -43 180 -71 128 -34 258 -88 267 -113 3 -7 1 -23 -4 -35 -9 -21
-3 -74 12 -109 6 -14 2 -18 -16 -18 -12 0 -34 -10 -47 -22 -14 -13 -22 -17
-18 -10 26 44 -36 119 -153 186 -101 57 -108 59 -124 35 -14 -19 -16 -19 -58
-3 -81 31 -129 75 -161 146 -17 37 -17 39 1 57 10 10 39 21 65 25 59 9 61 31
3 56 -63 28 -123 75 -153 119 -33 50 -26 77 23 90 57 16 63 32 42 118 -9 42
-15 89 -12 107 6 41 34 79 64 86 33 9 120 -13 156 -38z m-1622 -174 c2 -1 12
-48 22 -102 16 -83 22 -100 38 -102 11 -2 40 -6 65 -9 87 -11 106 -14 171 -28
l66 -14 53 94 c29 51 55 93 59 92 3 0 56 -17 116 -37 92 -31 110 -40 109 -57
-2 -33 -15 -155 -19 -175 -3 -16 12 -27 79 -58 46 -22 111 -56 145 -76 35 -20
68 -33 74 -29 7 4 30 24 52 44 79 73 88 79 109 73 31 -9 85 -46 134 -91 l42
-40 -44 -95 -45 -95 117 -117 117 -118 46 20 46 19 9 -30 c8 -27 5 -34 -24
-63 -28 -28 -31 -37 -26 -71 3 -21 11 -47 18 -58 7 -11 22 -37 35 -57 l22 -38
-25 -11 c-35 -16 -47 -56 -31 -104 17 -47 24 -54 110 -100 103 -54 147 -95
222 -205 38 -54 81 -106 96 -115 l29 -17 -40 -24 c-39 -23 -40 -25 -32 -61 11
-48 19 -88 25 -133 3 -19 7 -46 10 -60 2 -14 4 -39 4 -56 1 -28 5 -33 34 -38
60 -11 82 -16 133 -26 l51 -11 -1 -122 -1 -122 -75 -17 c-109 -24 -106 -24
-119 26 -17 69 -81 100 -118 57 -14 -17 -18 -17 -30 -5 -25 24 -34 15 -11 -11
l22 -25 26 25 c26 24 27 25 43 7 31 -34 49 -103 42 -162 -11 -99 -16 -134 -30
-195 -8 -32 -11 -62 -7 -65 4 -3 8 -25 8 -50 5 -165 13 -186 61 -153 75 52 92
37 62 -56 -21 -65 -25 -71 -50 -71 -44 0 -89 12 -89 24 -1 6 -7 25 -15 41
l-14 30 2 -40 c2 -40 2 -40 -33 -38 -23 2 -40 -4 -49 -15 -12 -16 -13 -15 -8
3 29 104 38 150 28 153 -5 2 -1 12 10 23 17 17 18 29 14 126 -5 92 -22 209
-42 276 -2 10 -16 23 -30 28 -21 8 -33 5 -65 -17 -21 -15 -43 -34 -48 -43 -14
-24 -12 -8 10 70 10 39 31 92 46 117 l27 45 -31 -22 c-43 -30 -82 -115 -90
-196 -7 -62 -8 -65 -25 -53 -17 13 -18 19 -7 78 20 106 19 424 -1 444 -3 3
-99 -28 -215 -70 -115 -42 -302 -109 -415 -149 -113 -40 -223 -80 -243 -89
-20 -8 -35 -12 -32 -8 3 5 187 147 410 316 223 170 406 312 406 316 0 5 -62 9
-137 9 -124 1 -210 3 -648 16 -211 6 -232 7 -210 12 11 2 90 24 175 48 85 24
245 69 355 100 330 92 350 98 359 106 10 9 -54 120 -126 216 -190 255 -467
463 -769 579 -83 31 -261 84 -285 84 -7 0 -10 -27 -8 -77 1 -43 5 -193 9 -333
3 -140 8 -320 11 -399 2 -80 3 -143 1 -140 -2 2 -80 219 -172 482 -93 263
-172 474 -177 469 -7 -7 -119 -319 -276 -769 -31 -89 -60 -160 -64 -157 -4 2
-5 12 -4 22 2 9 7 98 11 197 4 99 8 212 10 250 12 276 17 384 19 413 1 18 -1
35 -6 38 -4 3 -53 -6 -107 -20 -448 -116 -822 -391 -1059 -778 l-41 -67 42
-11 c23 -7 60 -17 82 -24 22 -8 207 -62 412 -122 205 -60 371 -110 369 -111
-5 -5 -690 -25 -939 -27 -42 -1 -76 -4 -75 -8 2 -4 181 -143 398 -308 217
-166 397 -304 399 -306 9 -8 -607 217 -807 295 -53 21 -75 26 -78 17 -6 -15
-12 -87 -13 -145 -1 -40 -2 -43 -15 -26 -13 18 -14 18 -43 -3 -64 -45 -105
-120 -148 -268 -17 -58 -38 -101 -72 -148 -56 -77 -53 -80 -77 84 -9 63 -18
116 -20 118 -4 4 -183 42 -198 42 -4 0 -8 55 -8 123 l0 123 98 24 c53 13 100
26 103 29 4 3 10 31 13 61 9 77 36 232 43 243 3 5 -4 15 -15 23 -20 14 -19 16
31 67 29 29 70 75 92 102 22 28 42 52 45 55 3 3 33 43 67 90 128 179 234 375
282 521 28 85 31 101 35 180 3 57 9 75 48 140 25 41 62 106 83 146 21 40 41
70 45 68 4 -2 25 9 46 25 21 16 42 30 45 30 7 0 37 -25 99 -84 25 -23 50 -45
57 -49 6 -4 45 12 85 36 40 23 104 56 141 72 l68 30 -5 70 c-3 39 -8 89 -11
111 l-7 39 74 24 c40 13 92 30 115 37 l42 13 53 -92 53 -93 90 18 c50 9 122
20 162 23 l72 7 12 57 c6 31 12 61 14 66 1 6 5 27 9 47 5 21 15 38 24 40 20 4
222 1 227 -4z m-1423 -36 c20 -75 -32 -230 -161 -481 l-69 -134 -79 -26 c-43
-14 -102 -43 -131 -63 -29 -21 -52 -36 -52 -34 0 13 198 331 313 503 159 238
152 227 140 222 -20 -7 -190 -224 -270 -344 -44 -67 -134 -208 -200 -315 -66
-107 -171 -274 -235 -370 -63 -96 -120 -184 -126 -195 -7 -12 -12 -14 -12 -6
0 11 85 171 163 306 13 22 72 130 132 240 148 274 148 274 185 330 104 154
231 296 320 356 49 33 76 37 82 11z m-1008 -454 c2 -159 -12 -250 -68 -444
-25 -88 -63 -222 -86 -298 -22 -77 -51 -192 -66 -255 -14 -64 -45 -195 -69
-291 -24 -96 -51 -210 -60 -253 -9 -43 -19 -76 -22 -74 -11 12 -1 406 12 427
1 3 6 34 9 70 32 317 91 602 163 779 52 131 33 120 -35 -19 -56 -117 -104
-248 -117 -322 -3 -17 -8 -34 -10 -38 -2 -3 -6 -17 -9 -31 -20 -99 -35 -181
-41 -219 -3 -25 -8 -52 -10 -60 -4 -15 -9 -63 -25 -240 -12 -136 -4 -415 14
-488 18 -70 46 -132 71 -152 8 -7 29 -13 45 -14 28 -1 30 -3 24 -31 -8 -40 -9
-40 -40 -20 -81 53 -122 137 -180 365 -35 138 -38 175 -39 370 0 172 6 239 36
425 51 319 153 561 341 807 91 120 132 157 152 138 4 -4 9 -64 10 -132z m4651
102 c18 -11 61 -56 96 -100 34 -44 64 -80 66 -80 2 0 12 5 22 12 55 34 141
-121 141 -256 0 -45 3 -56 13 -49 21 18 56 21 73 8 13 -9 17 -25 16 -62 -2
-36 6 -70 29 -124 44 -107 48 -163 15 -234 -34 -74 -42 -117 -21 -109 8 4 15
10 15 14 0 13 91 53 99 44 15 -17 41 -95 41 -123 0 -19 -16 -49 -45 -87 -52
-67 -72 -121 -51 -142 11 -11 21 -11 55 -1 68 20 70 6 16 -112 -52 -114 -70
-168 -81 -244 -12 -87 -22 -82 -22 11 -1 84 -20 242 -42 340 -9 41 -7 51 24
117 32 66 59 147 51 147 -2 0 -16 -27 -31 -59 -30 -67 -60 -103 -68 -80 -3 8
-23 82 -44 165 -35 134 -38 154 -26 175 28 49 57 168 55 228 -1 39 -11 57 -11
20 0 -57 -60 -229 -80 -229 -4 0 -12 19 -19 43 -7 23 -28 84 -47 134 -33 90
-34 96 -27 197 4 73 2 105 -6 110 -7 5 -11 -6 -12 -33 -1 -23 -3 -45 -4 -51
-1 -5 -3 -20 -4 -32 -2 -36 -16 -10 -71 126 -56 142 -79 190 -86 183 -3 -2 4
-38 16 -78 11 -40 20 -76 20 -79 0 -3 -13 9 -28 25 -30 34 -92 80 -92 70 0 -4
33 -42 73 -85 71 -77 88 -109 166 -313 2 -6 -23 10 -55 35 -66 51 -140 91
-156 86 -7 -3 15 -25 48 -50 32 -26 94 -82 136 -125 76 -77 77 -79 114 -193
20 -63 39 -119 42 -123 2 -5 -4 -4 -15 1 -21 12 -126 117 -131 132 -2 6 -12
15 -23 20 -31 17 36 -75 116 -159 70 -73 70 -74 97 -180 14 -58 26 -107 25
-107 -1 -1 -40 29 -87 67 -47 37 -103 77 -125 89 l-40 21 44 -38 c95 -82 203
-198 226 -244 22 -41 36 -153 36 -276 -1 -130 -11 -159 -65 -188 -20 -11 -37
-28 -37 -37 -1 -10 -3 -27 -4 -38 -1 -11 -3 -42 -4 -69 l-1 -49 -47 -4 c-55
-4 -73 8 -136 90 -63 82 -194 293 -238 386 -51 106 -54 168 -9 194 27 15 29
21 23 47 -4 17 -6 43 -5 58 1 15 -2 25 -7 23 -4 -3 -12 10 -18 28 -10 31 -8
34 23 51 67 36 80 -3 43 -135 -24 -86 -28 -153 -10 -174 7 -8 25 -13 44 -12
18 2 38 -1 45 -7 16 -13 15 -87 -3 -129 -11 -28 -12 -43 -3 -72 13 -40 12 -40
74 -25 25 6 48 8 52 4 4 -3 9 -51 12 -104 5 -87 8 -102 33 -134 38 -50 63 -63
83 -43 15 16 10 41 -6 31 -5 -3 -16 6 -25 19 -13 19 -17 50 -17 128 0 113 -3
121 -55 179 -29 32 -46 72 -89 201 -30 89 -54 166 -54 171 0 8 67 4 74 -4 2
-2 16 -44 31 -94 39 -130 87 -226 124 -248 27 -16 31 -24 31 -60 0 -48 17
-117 29 -117 21 0 56 56 66 108 15 70 1 114 -48 152 -104 80 -121 122 -65 161
l31 23 -45 41 c-25 22 -76 62 -114 87 -116 79 -148 122 -130 175 10 30 33 32
85 5 40 -20 46 -21 54 -7 14 26 1 44 -47 64 -24 11 -47 25 -51 31 -8 13 -9
150 -1 187 3 12 0 38 -5 57 -14 51 -67 63 -130 30 l-27 -13 11 41 c12 50 -2
115 -38 169 -30 46 -58 142 -50 170 4 11 17 25 30 31 22 10 24 16 22 87 -1 64
3 85 26 134 30 64 47 71 102 37z m-895 -18 c0 -7 7 -27 16 -44 l16 -31 -47 34
c-67 48 -70 54 -24 54 25 0 39 -5 39 -13z m104 -160 c29 -26 80 -62 113 -79
l60 -32 -23 -68 c-13 -37 -24 -76 -24 -85 0 -16 -46 -48 -69 -48 -12 0 -191
177 -191 188 0 10 73 172 78 172 2 0 28 -21 56 -48z m-1919 -161 c-4 -81 -15
-322 -29 -681 -8 -192 -15 -323 -19 -325 -1 -1 -159 44 -352 101 -192 57 -421
125 -507 150 -87 26 -158 50 -158 55 0 16 86 137 155 219 61 71 105 115 209
205 80 71 224 161 349 220 88 42 313 122 343 122 10 0 12 -17 9 -66z m2241 27
c102 -58 119 -99 88 -224 -11 -43 17 -34 76 26 66 67 70 68 124 11 25 -26 30
-40 30 -79 -1 -75 -19 -154 -54 -240 l-20 -47 42 49 c71 82 147 118 166 79 6
-15 8 -146 3 -225 -1 -9 -19 -37 -41 -63 -21 -25 -45 -63 -51 -85 -7 -22 -15
-37 -19 -35 -4 2 -13 25 -20 51 -9 30 -20 48 -32 52 -14 3 -17 10 -12 26 9 29
51 112 80 158 14 21 21 38 17 38 -11 -1 -67 -85 -102 -154 -31 -63 -44 -76
-76 -76 -17 0 -29 18 -59 90 -45 107 -44 118 16 260 54 126 55 129 29 98 -20
-25 -66 -126 -88 -193 l-10 -30 -12 40 c-15 56 -14 66 13 100 l24 29 -52 71
c-28 38 -59 81 -68 95 -10 14 -29 38 -42 55 l-25 29 -36 -17 c-19 -9 -35 -13
-35 -9 0 11 63 162 68 162 2 0 37 -19 78 -42z m-1410 11 c321 -97 615 -289
814 -530 25 -30 47 -56 51 -59 12 -10 109 -159 109 -168 0 -5 -78 -30 -172
-57 -95 -26 -315 -87 -488 -136 -384 -107 -370 -104 -371 -76 -4 86 -7 194
-14 407 -4 135 -9 277 -10 315 -3 71 -7 289 -6 313 1 16 7 16 87 -9z m-2050
-117 c-4 -57 -38 -186 -68 -250 -63 -139 -225 -398 -327 -527 -53 -66 -146
-165 -156 -165 -2 0 40 71 94 158 173 279 310 527 297 539 -8 8 3 22 -101
-137 -206 -315 -319 -497 -391 -632 -42 -79 -108 -197 -145 -264 -43 -73 -77
-149 -90 -195 -21 -75 -61 -160 -86 -180 -25 -22 -14 31 16 75 28 40 60 124
76 196 17 79 271 699 329 802 111 198 315 497 380 555 62 55 144 97 162 82 7
-6 11 -29 10 -57z m1594 58 c0 -8 72 -215 267 -770 42 -118 77 -231 77 -252 1
-35 3 -37 26 -30 29 8 173 8 640 -3 309 -6 431 -10 454 -14 5 0 -19 -22 -54
-48 -135 -103 -386 -295 -400 -306 -106 -86 -396 -298 -415 -303 -29 -7 -31
-16 -11 -47 14 -21 29 -66 90 -267 139 -462 226 -756 224 -762 -4 -11 -839
567 -876 607 -18 19 -35 35 -38 35 -3 0 -16 -13 -29 -28 -13 -15 -59 -52 -102
-82 -43 -29 -237 -163 -432 -297 -194 -135 -354 -243 -356 -241 -1 2 65 225
146 497 98 325 158 508 175 534 14 21 24 40 22 40 -66 33 -168 106 -502 361
-223 171 -404 311 -403 313 2 1 79 5 172 7 146 5 280 8 785 20 41 1 96 -3 123
-10 26 -7 47 -9 47 -6 4 64 13 93 207 642 91 260 135 384 140 403 6 18 23 24
23 7z m1797 -143 c13 -17 30 -42 39 -54 25 -34 45 -135 31 -153 -41 -52 -40
-51 -83 -29 -36 18 -24 2 16 -21 13 -7 11 -12 -8 -32 -12 -14 -22 -27 -22 -31
0 -4 18 -36 40 -72 22 -36 38 -65 36 -65 -2 0 -22 7 -45 15 -55 19 -44 1 12
-20 35 -13 48 -25 65 -61 25 -51 27 -61 10 -46 -7 5 -49 29 -93 52 -96 52
-112 64 -118 96 -6 33 14 57 47 57 24 0 27 3 22 23 -4 13 -20 45 -36 71 -44
69 -56 120 -34 144 9 10 28 19 41 19 27 0 28 7 6 61 -16 41 -16 42 6 61 32 25
43 23 68 -15z m107 -273 c3 -9 6 -23 6 -32 0 -14 -4 -13 -21 5 -12 11 -18 26
-15 32 10 16 23 14 30 -5z m1 -64 c20 -22 97 -191 91 -198 -2 -2 -18 6 -35 16
-35 22 -126 184 -117 209 7 17 31 6 61 -27z m-4340 -215 c-21 -58 -39 -104
-41 -102 -4 3 42 213 52 237 5 12 8 10 16 -7 8 -17 3 -44 -27 -128z m192 -12
c-24 -49 -50 -107 -60 -130 -9 -24 -21 -43 -27 -43 -15 0 -14 5 27 128 35 104
40 113 68 121 17 5 31 10 32 10 1 1 -17 -38 -40 -86z m4209 10 c-7 -7 -26 7
-26 19 0 6 6 6 15 -2 9 -7 13 -15 11 -17z m124 -55 c0 -16 -3 -19 -11 -11 -6
6 -8 16 -5 22 11 17 16 13 16 -11z m79 -82 c31 -100 35 -152 9 -144 -15 5 -67
147 -67 185 -1 35 7 63 18 63 4 0 22 -47 40 -104z m-107 -7 c52 -134 39 -133
-60 6 l-60 84 31 4 c18 2 37 3 42 2 6 -1 27 -44 47 -96z m-4453 -272 c-17 -45
-44 -122 -60 -172 l-29 -90 4 60 c4 58 38 219 55 260 5 12 19 21 35 23 l26 2
-31 -83z m4530 26 c17 -52 36 -93 87 -196 l44 -88 -43 6 c-101 15 -111 19
-113 45 0 14 -9 74 -19 133 -18 105 -18 108 1 122 27 20 28 19 43 -22z m-4259
17 c15 -8 17 -16 10 -47 -13 -56 -19 -92 -25 -143 -11 -91 -5 -85 -115 -105
-55 -10 -102 -16 -104 -14 -10 10 128 247 164 282 43 41 44 41 70 27z m-473
-257 c-9 -59 -19 -128 -23 -153 -3 -25 -8 -52 -9 -60 -2 -8 -4 -22 -4 -30 -1
-13 -3 -13 -10 -1 -9 14 -7 91 4 140 3 14 7 37 10 51 12 67 39 169 43 165 3
-2 -3 -53 -11 -112z m231 -219 c0 -86 4 -159 8 -163 5 -4 53 -16 107 -26 53
-10 97 -19 97 -19 7 -13 45 -258 41 -264 -3 -4 -44 -30 -91 -56 -47 -27 -87
-50 -89 -52 -2 -2 8 -43 24 -90 l27 -87 -17 -61 c-30 -109 -29 -109 -66 4 -28
86 -33 118 -32 180 2 53 -2 79 -12 90 -22 25 -42 78 -76 206 -34 133 -34 171
2 290 19 63 71 204 76 204 1 0 2 -70 1 -156z m1130 -6 c240 -89 455 -167 476
-175 61 -22 78 -33 72 -49 -4 -10 -562 -833 -591 -872 -4 -5 -121 153 -162
218 -49 80 -106 192 -123 243 -12 37 -8 94 16 222 10 53 7 159 -4 188 -6 15
-18 27 -27 27 -17 0 -20 11 -6 25 5 6 10 19 11 30 5 46 3 48 -58 42 l-59 -6 2
102 c2 138 4 167 10 167 3 0 202 -73 443 -162z m2893 70 c3 -218 -12 -349 -43
-380 -16 -16 -19 -28 -14 -61 13 -86 -86 -342 -201 -522 -53 -82 -153 -215
-162 -215 -3 0 -54 73 -113 163 -58 89 -190 289 -293 445 -103 156 -185 285
-183 287 3 4 538 196 613 221 22 7 114 40 205 73 91 33 171 60 178 61 8 0 12
-21 13 -72z m689 -17 c0 -5 6 -16 13 -23 31 -32 81 -102 106 -148 25 -46 26
-54 20 -127 -14 -152 -46 -332 -65 -365 -2 -3 -17 -1 -33 5 -44 16 -77 -3 -92
-52 -9 -32 -17 -40 -40 -43 -34 -5 -36 4 -14 76 8 27 15 53 15 57 0 4 -34 26
-75 49 -67 37 -75 44 -68 63 8 21 9 151 3 225 -2 19 2 37 9 41 6 4 54 15 105
25 52 10 96 23 98 29 2 7 4 54 4 104 -1 51 2 93 7 93 4 0 7 -4 7 -9z m-4109
-99 c36 -163 54 -378 53 -637 -1 -185 -6 -240 -39 -420 -17 -88 -89 -274 -108
-275 -13 0 10 915 28 1110 16 179 17 261 1 175 -43 -233 -73 -700 -79 -1227
-1 -30 -3 -35 -14 -26 -19 16 -31 40 -38 74 -2 16 -7 38 -9 49 -3 20 -12 87
-22 180 -9 86 -6 369 6 454 23 166 52 298 97 431 30 89 47 124 75 152 25 25
36 15 49 -40z m4780 -2 c31 -42 29 -106 -6 -191 -4 -12 3 -20 25 -29 17 -7 33
-22 36 -36 8 -30 -34 -122 -76 -165 l-31 -34 23 -6 c52 -14 68 -29 68 -64 0
-30 -6 -37 -43 -60 -24 -14 -46 -25 -50 -25 -13 0 -45 68 -51 110 -4 25 -18
65 -31 88 -14 24 -22 49 -18 55 4 7 -1 6 -10 -1 -9 -8 -21 -12 -26 -10 -14 4
32 131 69 191 30 49 36 67 23 67 -8 0 -71 -92 -109 -157 -10 -18 -22 -33 -26
-33 -4 0 -15 25 -24 56 -22 78 -35 50 -16 -36 l15 -69 -32 -39 c-17 -22 -45
-45 -61 -51 -41 -14 -41 -22 15 249 22 105 32 125 72 153 27 20 53 29 78 29
21 0 52 9 69 19 42 26 94 21 117 -11z m-5893 -145 c54 -61 117 -180 185 -350
50 -124 220 -609 267 -760 52 -165 133 -331 197 -401 30 -34 98 -74 123 -74
46 1 44 16 -24 138 l-66 119 -42 6 c-81 11 -88 41 -48 234 6 29 12 56 12 60 0
5 20 62 43 128 47 133 104 264 160 370 l37 70 -7 -98 c-5 -91 -10 -107 -74
-260 -98 -234 -139 -349 -142 -393 -4 -76 0 -84 30 -65 11 7 12 15 5 33 -11
26 -8 58 7 58 5 0 9 -5 9 -10 0 -6 7 -22 16 -36 12 -18 20 -22 29 -14 19 16
37 -18 22 -41 -15 -24 147 -254 172 -243 53 22 64 -6 21 -55 -17 -18 -30 -38
-30 -44 0 -14 86 -154 138 -224 31 -41 62 -70 90 -84 40 -20 44 -20 68 -4 21
13 31 15 52 6 26 -11 72 -69 72 -91 0 -5 5 -10 10 -10 6 0 9 15 7 35 -4 29
-17 48 -72 98 -48 44 -77 82 -102 132 -20 38 -61 108 -93 155 -31 47 -83 130
-115 185 -76 131 -160 269 -197 323 -17 24 -28 52 -26 65 2 18 24 -4 111 -113
59 -74 146 -190 193 -257 46 -66 91 -124 99 -126 9 -4 18 6 26 31 16 51 19 55
35 41 14 -12 14 -16 -6 -128 -14 -75 -12 -119 3 -128 7 -4 30 -37 50 -73 41
-75 179 -226 270 -297 34 -27 112 -84 174 -127 109 -75 153 -115 153 -141 0
-14 22 -25 51 -25 19 0 20 14 4 67 -6 17 12 26 39 19 14 -3 31 -20 40 -41 12
-24 44 -54 97 -91 44 -31 78 -58 77 -60 -2 -2 -34 -4 -71 -5 -67 -2 -68 -1
-180 66 -214 129 -421 273 -446 309 -21 33 -27 35 -69 33 -36 -1 -48 3 -59 19
-12 19 -18 20 -52 11 -47 -13 -103 2 -141 36 -50 45 -139 164 -195 260 -57 98
-93 135 -116 121 -23 -14 -93 -4 -133 20 -86 51 -115 89 -239 316 -191 351
-341 666 -412 870 -54 154 -68 184 -60 125 25 -182 236 -685 445 -1060 18 -33
31 -58 28 -55 -5 5 -67 76 -122 140 -37 43 -143 193 -181 255 -86 142 -188
385 -227 539 -37 148 -42 197 -43 377 0 130 2 149 19 168 24 26 39 18 104 -54z
m1262 42 c0 -13 -51 -89 -57 -84 -2 2 -6 22 -9 44 -5 34 -2 41 18 50 25 11 48
7 48 -10z m4236 -24 c-3 -21 -8 -47 -10 -58 -2 -11 -6 -36 -10 -55 -3 -19 -8
-46 -11 -60 -2 -14 -19 -89 -36 -167 -32 -141 -32 -141 -55 -131 -29 13 -28 4
-5 119 10 52 23 119 27 149 4 30 8 57 9 60 1 3 5 44 9 93 l8 87 40 0 41 0 -7
-37z m-4210 -107 c3 -13 3 -43 0 -67 -15 -129 -19 -159 -24 -155 -4 4 -29 99
-47 178 -4 20 31 68 51 68 7 0 16 -11 20 -24z m3448 -43 c43 -90 51 -261 23
-513 -2 -22 -25 -88 -34 -99 -2 -3 -17 8 -33 24 -40 38 -47 28 -11 -16 l29
-34 -31 -55 c-16 -30 -32 -57 -34 -59 -1 -2 -14 9 -28 25 -23 27 -35 60 -33
95 1 8 -11 40 -26 71 -26 53 -27 57 -12 92 18 44 41 46 103 11 l43 -26 2 23
c1 13 2 32 3 43 3 47 -71 215 -136 307 -15 20 -18 36 -13 67 6 37 8 39 30 29
19 -9 29 -6 61 20 52 43 75 41 97 -5z m-3849 -80 c-2 -16 -11 -61 -19 -100 -7
-40 -11 -73 -9 -73 3 0 1 -6 -5 -12 -14 -18 -145 -281 -176 -355 -45 -109 -84
-220 -89 -260 -12 -83 -19 -118 -24 -123 -5 -6 5 178 12 200 2 8 7 31 9 50 27
204 107 407 239 608 33 50 62 92 64 92 2 0 1 -12 -2 -27z m1251 -20 c-27 -77
-288 -955 -284 -957 1 -2 136 89 298 201 162 113 351 244 420 291 l125 87 -44
-55 c-24 -30 -107 -136 -185 -234 -77 -98 -191 -242 -253 -320 l-112 -141 52
-23 c78 -35 142 -58 240 -86 297 -86 678 -79 976 16 97 31 221 82 221 92 0 3
-100 135 -223 293 -354 457 -361 467 -346 458 21 -12 746 -512 801 -552 l47
-34 -11 38 c-5 21 -39 135 -75 253 -36 118 -82 274 -103 345 -22 72 -52 175
-69 230 -16 55 -28 101 -27 102 2 2 119 -172 262 -387 218 -327 261 -387 271
-373 7 8 25 30 40 47 150 168 288 410 347 609 l11 39 63 -111 c61 -107 89
-171 73 -171 -4 0 -12 5 -17 10 -17 17 -80 15 -108 -3 -36 -24 -42 -70 -18
-142 11 -33 20 -73 21 -88 2 -49 31 -90 132 -188 l99 -96 -39 -59 c-22 -32
-48 -70 -59 -83 l-20 -25 -94 43 -95 42 -117 -117 -117 -118 29 -75 c16 -42
32 -83 36 -92 9 -21 -177 -164 -198 -152 -8 4 -38 31 -68 58 -88 83 -79 80
-139 44 -30 -18 -89 -49 -132 -70 -111 -53 -105 -46 -93 -136 19 -135 26 -123
-99 -165 -60 -20 -112 -37 -116 -37 -3 -1 -29 41 -58 93 l-53 93 -37 -8 c-20
-5 -52 -12 -71 -15 -19 -3 -44 -7 -56 -9 -11 -2 -50 -6 -87 -10 -49 -5 -68
-12 -71 -24 -3 -9 -12 -55 -22 -103 -9 -49 -22 -88 -28 -89 -22 -1 -201 -1
-218 0 -10 1 -19 13 -23 34 -3 17 -13 64 -21 103 l-15 72 -72 7 c-40 3 -111
15 -159 24 l-87 18 -52 -93 c-29 -52 -55 -94 -58 -93 -3 0 -55 17 -116 37
-124 42 -114 26 -101 157 4 38 9 72 12 76 6 11 -12 22 -160 98 l-140 72 -45
-45 c-83 -79 -105 -97 -116 -92 -18 7 -185 127 -185 133 0 3 18 45 40 94 22
49 40 92 40 97 0 4 -51 58 -112 119 l-113 111 -45 -22 c-167 -81 -187 -78
-135 18 43 78 68 149 94 269 18 81 33 189 34 236 0 8 15 43 34 79 18 35 33 71
33 80 0 9 17 -20 39 -64 50 -105 118 -208 209 -323 l76 -95 25 34 c22 28 212
304 463 673 33 48 61 87 63 87 2 0 -2 -17 -9 -37z m3576 -99 c9 -27 17 -74 18
-104 0 -73 25 -123 65 -130 34 -6 36 -16 23 -114 -11 -78 -35 -128 -103 -211
-77 -95 -91 -125 -78 -169 15 -48 8 -101 -18 -139 -13 -18 -66 -76 -118 -130
-86 -87 -95 -101 -93 -130 5 -54 -62 -105 -216 -163 -81 -31 -84 -30 -37 8
107 88 206 218 235 310 12 38 61 83 145 134 22 13 33 24 24 24 -8 0 -41 -16
-73 -35 -45 -27 -57 -31 -53 -17 3 9 22 64 41 122 20 58 38 116 41 130 3 14
32 54 66 90 60 65 146 187 137 195 -2 3 -25 -23 -50 -58 -55 -73 -135 -152
-124 -122 15 41 86 326 90 361 6 49 -8 31 -24 -31 -20 -77 -24 -81 -45 -36
-27 61 -36 49 -15 -21 16 -51 17 -70 9 -112 -24 -116 -69 -243 -69 -195 0 42
-152 300 -168 284 -2 -2 9 -26 25 -52 74 -121 127 -269 119 -331 -5 -35 -78
-247 -89 -259 -2 -1 -25 17 -50 42 -55 52 -80 60 -42 13 14 -18 37 -47 51 -65
l25 -31 -25 -49 c-38 -74 -123 -178 -197 -240 l-32 -27 18 33 c30 58 44 121
43 195 -1 98 -2 94 38 111 41 17 41 26 8 118 -20 57 -11 70 44 63 25 -3 35 1
43 16 9 16 3 32 -30 87 -52 85 -73 173 -49 198 10 10 31 16 52 15 26 -1 36 3
41 18 9 29 -10 86 -43 128 -33 41 -56 110 -46 137 9 23 65 12 124 -25 69 -43
86 -45 115 -16 17 17 25 37 26 63 1 21 2 45 3 53 1 10 16 17 51 20 61 6 71 12
91 53 32 62 52 60 76 -9z m-4477 -124 c-10 -73 -25 -84 -25 -20 0 30 -3 80 -5
110 l-5 55 20 -50 c16 -37 20 -60 15 -95z m3761 103 c77 -42 84 -50 72 -85 -8
-22 -15 -28 -29 -25 -10 3 -35 -4 -55 -15 -20 -10 -39 -17 -42 -14 -12 12 -9
166 3 166 1 0 24 -12 51 -27z m-4299 -63 l-42 -81 -16 48 -16 48 31 19 c17 10
40 25 51 32 36 23 35 15 -8 -66z m2190 -123 c13 -18 31 -42 41 -53 9 -10 35
-44 57 -74 22 -30 42 -57 45 -60 3 -3 113 -144 244 -315 l238 -309 -64 -24
c-65 -25 -219 -67 -275 -77 -155 -25 -177 -27 -313 -27 -126 0 -225 7 -260 17
-8 2 -33 7 -56 10 -115 16 -359 99 -347 118 6 12 44 60 177 227 37 47 73 92
79 100 27 34 203 256 214 270 7 8 42 53 79 100 73 94 104 130 113 130 3 0 16
-15 28 -33z m2270 -82 l1 -99 -66 -66 c-37 -36 -84 -86 -104 -110 -20 -25 -40
-42 -43 -38 -14 14 -6 108 13 145 11 21 25 57 31 81 9 30 17 42 30 42 11 0 24
12 31 31 8 19 16 26 20 19 4 -7 10 2 14 21 9 45 34 81 54 77 14 -3 17 -18 19
-103z m-287 -29 c0 0 4 -27 10 -60 5 -32 12 -90 16 -130 l6 -71 -24 25 c-12
14 -44 43 -70 64 -27 21 -48 43 -48 48 0 15 52 122 63 129 7 5 47 1 47 -5z
m92 -5 l27 -1 -23 -52 c-13 -29 -28 -54 -33 -55 -6 -2 -13 13 -17 34 -3 21 -9
48 -12 60 -5 17 -2 21 13 18 10 -2 30 -4 45 -4z m-4127 -198 c-1 -26 4 -78 10
-115 13 -76 8 -77 -39 -9 l-27 38 27 67 c14 36 27 66 29 66 1 0 1 -21 0 -47z
m3979 -20 c70 -67 95 -98 95 -118 1 -14 -75 -95 -82 -88 -4 3 -2 15 4 25 9 17
4 27 -33 66 -108 115 -102 104 -82 146 10 20 20 36 23 36 2 0 36 -30 75 -67z
m336 -2 c0 -34 -11 -54 -80 -143 -171 -221 -315 -447 -417 -652 -79 -160 -98
-185 -171 -235 -69 -46 -89 -68 -76 -81 14 -14 159 86 219 151 40 43 163 192
229 278 6 7 9 42 8 77 -2 45 2 73 15 96 l17 33 7 -49 c17 -112 42 -86 167 176
l90 189 0 -61 c0 -34 3 -64 6 -67 4 -4 -6 -20 -21 -36 -26 -26 -28 -34 -28
-111 l0 -83 -67 -58 c-86 -73 -109 -110 -110 -174 0 -49 -1 -51 -46 -77 -69
-41 -182 -158 -281 -292 -29 -39 -64 -81 -77 -91 -36 -29 -94 -35 -139 -16
-42 17 -55 10 -55 -31 0 -12 -8 -31 -17 -41 -37 -41 -307 -193 -343 -193 -6 0
-7 24 -4 58 7 66 10 69 128 140 106 63 178 131 226 211 22 36 54 82 70 101 97
109 122 168 122 283 -1 82 1 88 16 74 23 -19 49 -27 67 -21 8 3 42 53 76 109
71 120 195 283 308 405 43 47 95 104 116 128 21 23 40 42 42 42 1 0 3 -18 3
-39z m-393 -319 c-13 -20 -45 -70 -71 -109 -25 -40 -47 -73 -49 -73 -1 0 -24
7 -51 15 l-49 15 -43 -44 -43 -45 5 -103 c6 -121 -2 -141 -101 -253 -69 -77
-87 -102 -120 -167 -27 -51 -52 -80 -105 -121 l-35 -26 -41 40 -41 40 -54 -20
c-92 -35 -471 -231 -514 -266 -22 -19 -62 -67 -90 -108 l-50 -74 -70 -2 -70
-2 -55 52 c-96 89 -117 97 -195 74 -27 -8 -84 -16 -125 -18 -55 -2 -90 -11
-132 -30 -74 -35 -113 -35 -146 1 -159 173 -155 170 -269 218 -165 69 -364
141 -432 157 -59 14 -61 14 -96 -10 -19 -13 -35 -27 -35 -31 0 -5 -6 -17 -14
-27 -13 -17 -15 -17 -52 10 -53 39 -190 178 -245 250 -91 119 -111 186 -89
313 6 39 9 79 6 90 -7 22 -75 62 -105 62 -14 0 -23 -8 -27 -25 -3 -14 -9 -25
-13 -25 -3 1 -30 38 -58 84 -56 87 -68 123 -33 91 19 -17 23 -16 114 25 l95
43 95 -95 96 -96 -44 -100 -44 -99 117 -85 c64 -46 121 -87 126 -90 6 -4 46
26 88 65 l78 72 123 -60 124 -60 -5 -50 c-3 -27 -8 -76 -12 -108 -5 -35 -4
-60 2 -64 5 -3 72 -27 147 -53 l138 -47 52 94 c56 101 53 100 141 83 30 -6 77
-13 104 -16 28 -3 57 -10 65 -14 10 -5 22 -44 33 -109 17 -91 21 -101 40 -102
137 -5 291 2 298 12 4 7 12 40 18 73 19 105 22 120 26 125 4 4 113 21 230 37
l40 6 38 -74 c67 -126 45 -120 213 -64 l146 48 -6 41 c-3 22 -9 70 -12 107
l-6 68 120 60 120 61 79 -69 c43 -39 81 -70 85 -70 6 0 219 150 242 171 5 5
-10 48 -37 104 l-47 96 97 95 96 96 93 -41 c50 -23 96 -41 102 -41 5 0 33 34
63 76 52 74 85 88 36 16z m-3882 -172 c26 -44 45 -85 43 -91 -2 -6 -30 27 -62
74 -32 47 -55 90 -51 96 10 17 20 7 70 -79z m193 -304 c60 -84 118 -193 109
-203 -9 -8 -76 63 -149 156 -56 72 -57 74 -40 97 9 13 19 23 22 24 3 0 29 -33
58 -74z m-377 -169 c39 -27 42 -54 14 -127 -14 -35 -17 -73 -17 -172 1 -71 -1
-128 -5 -128 -3 0 -29 14 -57 32 -28 17 -118 67 -201 110 -82 42 -145 78 -140
79 45 4 72 12 84 24 13 12 11 16 -12 24 -32 13 -155 5 -174 -11 -32 -26 -10
-52 92 -107 178 -95 385 -222 635 -389 l245 -164 110 7 c61 3 124 7 140 9 17
2 59 7 95 11 94 9 178 23 324 51 139 28 138 28 206 40 25 4 47 8 50 9 3 1 32
5 65 9 32 4 67 9 76 11 17 3 100 14 159 21 19 2 71 6 115 9 148 8 250 16 270
19 15 2 27 -9 48 -48 41 -75 87 -218 90 -278 2 -51 1 -53 -33 -70 -48 -25
-415 -151 -530 -182 -91 -25 -292 -71 -355 -82 -16 -2 -37 -7 -45 -9 -29 -9
-294 -53 -475 -79 -22 -3 -62 -8 -90 -11 -27 -4 -57 -8 -65 -10 -8 -2 -46 -7
-85 -11 -38 -3 -73 -8 -76 -10 -8 -4 -237 109 -393 195 -72 39 -131 71 -133
71 -9 0 -328 210 -390 257 -85 64 -176 159 -204 215 l-21 41 57 109 c81 156
98 222 81 323 -4 26 13 62 33 71 9 3 99 8 201 11 102 2 190 6 197 8 16 5 75
123 68 135 -11 17 11 11 46 -13z m4489 -23 c0 -35 -1 -36 -30 -30 -24 4 -30 2
-30 -13 0 -19 34 -54 65 -66 11 -4 92 -9 180 -11 272 -6 276 -8 282 -118 5
-106 36 -214 89 -315 l46 -88 -21 -40 c-36 -71 -69 -101 -264 -234 -106 -71
-253 -172 -327 -223 -74 -51 -185 -126 -247 -168 l-111 -75 -124 3 c-312 6
-554 32 -863 90 -59 11 -94 19 -240 56 -88 22 -164 41 -170 42 -5 2 -29 8 -53
15 l-43 12 34 42 c51 63 60 85 53 131 -19 135 -46 195 -126 285 -17 19 -29 39
-27 45 2 7 36 11 88 10 113 -1 180 -10 349 -49 200 -45 448 -89 615 -110 28
-3 77 -10 110 -14 33 -5 96 -9 140 -10 69 -2 87 1 129 24 56 30 206 139 309
226 136 115 333 246 513 342 54 29 99 58 101 64 5 15 -48 31 -133 38 -59 5
-72 4 -77 -9 -7 -17 8 -30 36 -32 54 -5 53 -3 27 -24 -14 -11 -28 -20 -32 -20
-13 0 -194 -111 -271 -166 l-78 -56 5 34 c9 61 19 183 19 244 0 45 -5 71 -21
98 -30 51 -28 61 21 84 63 31 77 29 77 -14z m-3291 -230 c83 -39 220 -95 346
-140 82 -29 104 -46 182 -141 19 -23 32 -46 29 -52 -7 -11 -71 -23 -140 -26
-45 -2 -56 2 -125 51 -51 36 -106 90 -166 161 -98 117 -151 159 -205 165 -35
5 -56 -9 -88 -58 -11 -17 -12 -17 -6 6 12 43 37 69 68 70 15 0 63 -16 105 -36z
m2128 -10 c13 -20 11 -23 -22 -44 -23 -14 -62 -25 -106 -30 -44 -5 -90 -18
-127 -36 -50 -25 -60 -36 -84 -85 -25 -53 -33 -60 -113 -104 -78 -42 -91 -46
-136 -42 -28 3 -52 7 -54 9 -3 2 28 37 68 77 65 66 86 80 227 148 85 41 164
78 175 83 11 4 36 15 55 23 72 31 96 31 117 1z m-91 -208 c-5 -42 -12 -56 -42
-83 -39 -34 -116 -76 -149 -81 -28 -4 -96 -3 -120 2 -11 3 -24 5 -30 5 -12 1
96 60 111 61 6 0 16 -11 22 -25 21 -45 34 -30 27 30 -6 43 -4 61 9 80 27 40
115 78 159 67 16 -4 18 -12 13 -56z m-972 -124 c32 -12 61 -24 64 -26 2 -3 13
-1 24 5 22 12 35 0 141 -125 97 -115 118 -154 124 -239 5 -70 5 -73 -25 -105
-38 -40 -58 -41 -74 -1 l-13 30 -47 -61 c-56 -73 -166 -149 -215 -150 -32 0
-137 42 -147 59 -9 15 44 33 60 20 8 -6 11 -16 8 -21 -15 -25 37 23 97 87 64
69 66 73 62 116 -6 73 -41 193 -82 290 -54 124 -59 129 -140 130 -41 0 -59 3
-47 8 35 14 150 4 210 -17z m80 19 c4 -5 -3 -7 -14 -4 -23 6 -26 13 -6 13 8 0
17 -4 20 -9z m-1292 -63 c43 -28 76 -53 75 -55 -2 -1 -21 -5 -43 -8 -50 -8
-70 -11 -121 -20 -24 -4 -43 -3 -43 2 0 17 42 133 48 133 3 0 41 -23 84 -52z
m2452 -83 c9 -13 16 -26 16 -28 0 -3 -60 6 -132 19 -73 13 -140 24 -147 24
-25 0 1 17 54 34 28 9 66 15 85 14 39 -1 80 16 81 35 0 7 6 -7 14 -31 7 -23
20 -54 29 -67z m-1816 -622 c2 -13 -18 -38 -65 -81 -100 -90 -109 -98 -216
-179 -81 -62 -103 -74 -119 -66 -18 8 -14 13 38 45 73 45 264 184 284 206 38
43 41 49 27 55 -8 3 -25 -5 -38 -17 -85 -77 -237 -175 -372 -240 -46 -21 -77
-42 -74 -49 2 -7 25 -15 51 -19 106 -15 143 -124 41 -120 -35 1 -156 60 -170
82 -4 6 -28 21 -55 35 -54 27 -62 36 -51 53 5 8 25 5 76 -13 38 -13 71 -22 73
-20 2 2 -1 19 -6 38 l-10 34 79 48 c43 26 83 53 88 59 5 6 11 31 13 55 l3 44
60 3 c36 1 80 11 110 25 69 30 186 58 210 49 11 -4 21 -16 23 -27z m1195 -29
c66 -15 84 -25 207 -117 74 -56 144 -109 154 -119 19 -17 19 -18 0 -23 -10 -4
-34 -13 -52 -21 -60 -26 -94 -19 -139 29 -22 23 -97 89 -167 146 -87 72 -122
107 -114 113 18 11 29 10 111 -8z m469 -287 c58 9 81 8 85 -4 2 -6 -12 -14
-36 -18 -22 -3 -59 -19 -83 -34 -41 -26 -102 -51 -138 -57 -51 -9 -84 34 -53
68 23 26 131 56 165 47 16 -4 43 -5 60 -2z"/>
<path d="M825 1513 c3 -10 7 -20 8 -23 2 -7 -145 -244 -158 -252 -5 -4 -21 -8
-34 -8 -22 0 -19 -4 20 -28 76 -48 72 -47 60 -24 -9 17 -5 30 21 76 18 31 38
56 45 56 14 0 15 -7 17 -130 1 -72 4 -85 19 -88 9 -2 17 -8 17 -13 0 -5 3 -9
8 -9 4 0 5 49 4 110 l-4 109 35 -4 c64 -8 120 59 96 117 -11 26 -132 128 -153
128 -4 0 -5 -8 -1 -17z m97 -80 c48 -43 -17 -153 -72 -122 -43 24 -43 24 -5
83 38 60 48 65 77 39z"/>
<path d="M1070 1346 c0 -3 5 -14 11 -24 10 -15 2 -33 -41 -103 -93 -148 -112
-171 -137 -166 -13 2 -23 1 -23 -3 0 -6 194 -140 204 -140 2 0 14 16 25 36 12
20 18 34 14 32 -5 -2 -20 -10 -34 -17 -22 -11 -31 -10 -65 6 -24 11 -40 26
-42 39 -3 20 56 134 69 134 22 0 40 -34 34 -64 -5 -28 -3 -25 24 19 33 54 39
74 17 56 -15 -13 -66 -5 -66 10 0 20 72 119 86 119 9 0 29 -14 46 -30 25 -25
29 -35 23 -63 l-6 -32 20 33 c12 18 21 36 21 41 0 5 -30 27 -67 50 -38 23 -78
49 -90 58 -13 8 -23 13 -23 9z"/>
<path d="M3167 1098 c-21 -136 -22 -148 -4 -126 6 9 35 19 62 23 51 6 51 6 68
-30 19 -40 22 -75 6 -75 -5 0 -8 -4 -5 -8 3 -5 30 -4 60 1 30 6 53 14 50 19
-3 4 -9 6 -13 4 -15 -10 -30 13 -107 156 -43 82 -84 148 -89 148 -6 0 -18 -51
-28 -112z m58 -31 c15 -27 25 -51 22 -53 -3 -3 -23 -6 -47 -8 -38 -3 -41 -1
-36 18 3 11 8 40 12 64 8 48 11 47 49 -21z"/>
<path d="M1312 1181 c10 -16 5 -30 -29 -87 -22 -38 -53 -91 -68 -119 -37 -67
-56 -87 -77 -82 -36 10 -16 -13 35 -40 71 -38 75 -39 53 -15 -18 21 -18 24 -2
64 9 24 25 53 36 66 19 22 20 23 52 6 54 -28 90 -28 121 0 14 13 29 37 33 52
12 47 -7 76 -81 126 -77 52 -91 57 -73 29z m88 -71 c11 -11 20 -28 20 -37 0
-25 -36 -76 -57 -84 -19 -6 -63 9 -63 22 0 13 65 119 73 119 4 0 16 -9 27 -20z"/>
<path d="M2994 1162 c6 -10 -5 -11 -47 -6 -86 10 -145 -30 -166 -113 -29 -111
15 -211 106 -241 39 -13 53 0 17 17 -33 15 -77 110 -77 165 1 100 3 107 32
137 38 38 79 38 116 2 15 -16 31 -37 36 -48 6 -13 7 -3 3 30 -3 28 -10 55 -16
60 -8 7 -9 6 -4 -3z"/>
<path d="M2665 1112 c-40 -3 -76 -22 -42 -22 20 0 31 -25 41 -93 4 -27 10 -59
12 -70 3 -12 8 -49 11 -81 5 -51 3 -61 -13 -74 -18 -13 -16 -14 15 -8 18 3 49
6 67 6 19 0 34 5 34 10 0 6 -6 10 -14 10 -27 0 -45 30 -52 87 -3 32 -8 65 -9
73 -16 89 -16 132 -1 149 11 12 12 17 4 17 -7 -1 -31 -2 -53 -4z"/>
<path d="M1502 1060 c10 -16 6 -49 -21 -187 -18 -92 -33 -172 -33 -178 1 -26
27 -8 125 86 129 122 151 140 177 142 23 1 19 5 -34 37 -37 22 -38 22 -27 3
13 -25 -18 -69 -111 -155 -64 -60 -83 -70 -74 -40 3 9 8 38 11 64 4 26 16 78
28 115 18 55 26 69 44 71 18 3 12 9 -33 33 -66 34 -68 35 -52 9z"/>
<path d="M2385 1060 c-22 -4 -43 -6 -47 -4 -4 2 -9 0 -13 -6 -3 -5 3 -10 13
-10 25 0 28 -12 43 -172 12 -121 11 -129 -7 -149 -18 -20 -18 -20 6 -15 42 9
133 24 183 31 l49 7 -6 45 c-7 58 -12 63 -20 19 -8 -43 -38 -66 -87 -66 -45 0
-55 12 -64 75 -4 28 -9 59 -11 70 -2 11 -7 52 -10 90 -6 68 -5 72 17 82 27 13
12 14 -46 3z"/>
<path d="M2188 1015 c-2 -2 -32 -6 -67 -9 -72 -7 -82 -11 -51 -21 27 -9 37
-35 45 -121 3 -38 10 -95 14 -128 7 -52 6 -60 -13 -79 -12 -11 -15 -17 -8 -13
7 4 43 12 80 17 92 13 118 25 137 66 16 33 16 38 1 70 -15 32 -71 68 -88 57
-16 -10 -7 6 18 33 21 23 24 33 19 63 -4 19 -10 38 -14 43 -8 8 -68 27 -73 22z
m30 -28 c32 -38 14 -117 -27 -117 -14 0 -20 10 -25 46 -10 76 -8 84 18 84 13
0 28 -6 34 -13z m44 -164 c26 -24 24 -97 -3 -116 -29 -21 -56 -10 -68 25 -12
33 -15 101 -5 111 10 9 58 -3 76 -20z"/>
<path d="M1869 975 c-3 -2 -21 -5 -40 -6 -46 -3 -59 -12 -29 -19 19 -4 26 -13
28 -35 2 -17 12 -74 22 -127 25 -122 25 -133 -2 -154 -22 -16 -21 -16 32 -9
30 3 64 8 75 9 61 7 85 19 105 51 38 61 5 135 -59 135 -23 0 -23 1 -7 19 33
36 20 116 -21 132 -25 9 -96 13 -104 4z m75 -31 c16 -16 20 -33 16 -69 -3 -27
-16 -42 -44 -47 -22 -5 -24 -1 -30 54 -4 32 -4 63 -1 68 9 15 42 12 59 -6z
m50 -157 c18 -13 35 -70 28 -99 -3 -14 -48 -38 -72 -38 -13 0 -40 79 -40 115
0 33 2 35 33 35 18 0 41 -6 51 -13z"/>
<path d="M3142 925 c0 -16 2 -22 5 -12 2 9 2 23 0 30 -3 6 -5 -1 -5 -18z"/>
<path d="M3037 933 c-4 -3 -7 -17 -7 -31 0 -31 -30 -82 -50 -83 -10 0 -11 -2
-3 -6 7 -2 26 5 42 16 22 16 31 18 35 9 3 -7 3 7 -1 32 -3 25 -6 51 -6 58 0
14 -1 14 -10 5z"/>
<path d="M3117 865 l-18 -24 46 2 c26 1 45 7 45 14 0 6 -9 9 -20 6 -14 -4 -20
0 -20 11 0 23 -12 19 -33 -9z"/>
<path d="M5912 1419 c3 -13 24 -87 47 -164 31 -102 41 -150 37 -177 l-6 -38
35 25 c39 26 45 42 15 37 -20 -3 -30 12 -43 68 -5 21 1 30 34 53 45 33 67 31
114 -7 24 -19 27 -26 17 -38 -25 -30 2 -25 46 9 55 42 63 55 28 49 -15 -3 -35
3 -48 13 -13 9 -81 57 -152 106 -110 75 -128 85 -124 64z m115 -161 c-18 -15
-35 -28 -39 -28 -3 0 -14 24 -24 53 -9 28 -19 58 -22 65 -2 7 23 -4 56 -25
l61 -38 -32 -27z"/>
<path d="M5752 1313 c-9 -10 -28 -23 -42 -30 -24 -11 -24 -12 13 -12 20 -1 37
-4 37 -8 0 -5 16 -26 36 -48 l36 -40 -36 52 c-31 44 -35 55 -26 77 11 30 7 33
-18 9z"/>
<path d="M5547 1161 c-35 -23 -35 -37 1 -33 23 2 33 -7 72 -65 25 -37 59 -87
77 -111 27 -36 31 -47 23 -68 -6 -14 -10 -27 -10 -29 0 -3 20 9 45 26 50 34
56 44 22 35 -17 -4 -30 1 -45 17 -26 28 -141 181 -138 184 1 2 74 -21 162 -51
176 -59 176 -59 187 -57 8 1 -50 91 -59 91 -3 0 -2 -4 1 -10 8 -14 17 -16
-150 40 -82 28 -152 50 -155 50 -3 0 -18 -9 -33 -19z"/>
<path d="M5850 1140 c12 -16 24 -30 26 -30 3 0 -4 14 -16 30 -12 17 -24 30
-26 30 -3 0 4 -13 16 -30z"/>
<path d="M4032 1118 c9 -8 17 -23 19 -33 2 -16 -10 -145 -16 -165 -1 -3 -5
-27 -9 -53 -6 -34 -15 -53 -32 -64 -29 -19 -22 -33 16 -33 16 0 40 -4 54 -10
16 -6 27 -6 31 0 4 6 0 10 -8 10 -18 0 -25 17 -21 50 26 229 37 271 74 280 20
5 16 8 -25 14 -27 4 -61 10 -75 12 -22 5 -23 4 -8 -8z"/>
<path d="M4192 1071 c-8 -32 -7 -41 3 -41 7 0 16 11 19 25 5 20 13 25 39 25
59 0 62 -11 42 -140 -3 -19 -7 -55 -10 -80 -8 -68 -16 -100 -26 -101 -5 -1
-13 -2 -18 -3 -17 -2 -25 -16 -10 -17 8 0 22 -2 31 -4 10 -2 37 -6 60 -10 42
-7 43 -6 20 10 -21 16 -23 23 -17 64 11 78 15 104 26 161 19 107 16 101 52 95
38 -7 64 -29 70 -59 2 -12 5 -5 6 17 0 20 2 40 4 44 2 7 -134 35 -234 48 l-46
7 -11 -41z"/>
<path d="M5354 1026 c3 -12 8 -41 11 -62 4 -21 8 -47 11 -56 3 -9 7 -27 9 -40
3 -13 10 -45 16 -71 6 -27 9 -69 6 -93 -2 -24 -3 -44 -1 -44 10 0 74 35 74 40
0 4 -10 6 -22 6 -19 -1 -23 6 -30 48 -4 28 -5 53 -2 58 5 8 78 48 88 48 3 0
21 -14 41 -31 36 -32 44 -54 23 -62 -7 -2 -10 -7 -7 -11 4 -4 22 2 40 14 19
11 42 23 52 26 16 6 25 25 10 23 -29 -5 -57 14 -172 116 -71 63 -135 115 -141
115 -8 0 -10 -9 -6 -24z m105 -113 c19 -18 33 -34 30 -37 -6 -5 -67 -36 -72
-36 -3 0 -8 21 -12 46 -3 25 -8 55 -10 66 -5 23 2 19 64 -39z"/>
<path d="M4535 885 c-61 -125 -81 -158 -103 -167 l-27 -11 25 -7 c14 -5 39 -8
55 -9 25 0 27 1 13 10 -22 12 -22 22 -1 77 l16 44 56 -7 c31 -4 59 -12 63 -19
4 -6 8 -32 8 -57 0 -40 -3 -48 -22 -54 -28 -8 -19 -12 54 -23 l56 -9 -19 26
c-19 26 -29 68 -64 264 -10 53 -22 97 -26 97 -4 0 -42 -70 -84 -155z m80 -1
l6 -61 -33 3 c-17 2 -35 7 -39 12 -9 9 44 123 53 114 4 -4 9 -35 13 -68z"/>
<path d="M4823 987 c-3 -6 -1 -7 4 -4 6 4 16 0 23 -8 13 -15 10 -62 -11 -180
-18 -105 -30 -135 -56 -141 -13 -4 -22 -8 -20 -10 3 -4 129 -28 202 -40 22 -3
43 -8 47 -10 7 -5 12 10 23 64 4 20 3 32 -4 32 -6 0 -11 -6 -11 -13 0 -30 -38
-55 -81 -53 -59 4 -81 32 -73 95 23 181 38 241 64 241 10 0 21 4 24 8 3 5 -24
13 -60 19 -42 6 -67 6 -71 0z"/>
<path d="M5173 962 c-42 -3 -62 -22 -23 -22 25 0 30 -29 34 -190 4 -118 3
-126 -18 -142 l-21 -17 25 5 c14 2 45 5 70 5 34 1 40 3 24 9 -27 10 -32 35
-40 200 -7 128 -7 131 15 137 28 7 27 23 -1 20 -13 -1 -42 -3 -65 -5z"/>
</g>
</svg>
