<?xml version="1.0" encoding="UTF-8"?>
<svg enable-background="new 0 0 542 152.8" version="1.1" viewBox="0 0 542 152.8" xml:space="preserve" xmlns="http://www.w3.org/2000/svg">
<style type="text/css">
.st0{enable-background:new;}
.st1{fill:#FFFFFF;}
</style>
<title>Logo dell&amp;Agenzia per l&amp;Italia Digitale</title>
<desc>Emblema della Repubblica Italiana con accanto l&amp;acronimo AGID</desc>
<g class="st0">
<path class="st1" d="m142.1 138.5l28-124.4h47.9l28 124.4h-25.3l-4.9-22.5h-43.6l-4.9 22.5h-25.2zm47.6-103.6l-12.6 59.1h34l-12.6-59.1h-8.8z"/>
<path class="st1" d="m312.7 93.8v-22h36.2v64.6c-17.4 2.8-31.6 4.2-42.5 4.2-19.4 0-32.7-5.2-40-15.6s-10.9-26.8-10.9-49.4 3.8-38.9 11.3-48.9c7.6-10 20.4-15 38.6-15 11.3 0 23.6 1.3 36.8 3.8l6.6 1.3-0.7 19.6c-14.6-1.6-26.6-2.4-36-2.4-9.3 0-15.9 1.1-19.7 3.3s-6.6 6.3-8.3 12.2c-1.8 5.9-2.7 16-2.7 30.4 0 14.3 1.8 24.4 5.3 30.1s10.9 8.6 22 8.6l15.3-0.6v-24.2h-11.3z"/>
<path class="st1" d="M372.7,138.5V14.1h25.3v124.4H372.7z"/>
<path class="st1" d="m466.9 138.5h-41.9v-124.4h41.9c10.7 0 19.6 1.1 26.5 3.4 7 2.3 12.4 6 16.2 11.2s6.5 11.3 8 18.3 2.2 16.1 2.2 27.4c0 11.2-0.7 20.5-2 27.9s-3.9 14-7.6 19.8-9.1 10-16.2 12.6c-7.1 2.5-16.1 3.8-27.1 3.8zm26.6-49.4c0.2-3.9 0.4-9.3 0.4-16.2s-0.2-12.4-0.7-16.6c-0.5-4.1-1.6-7.9-3.5-11.3-1.8-3.4-4.5-5.8-8.1-7-3.6-1.3-8.5-1.9-14.5-1.9h-16.7v80.5h16.7c9.1 0 15.8-2.3 19.9-7 3.4-3.8 5.6-10.6 6.5-20.5z"/>
</g>
<path class="st1" d="m84.7 96.2c0.7 0 1.5 0.4 1.1 0.7s-0.4 1.1-0.8 1.5c-0.7 0-1.1-0.4-1.5-1.1-0.1-0.5 0.3-1 0.9-1.1h0.3z"/>
<path class="st1" d="m35.7 111.5c0.6 0.4 1.3 0.4 1.8 0l-0.7-0.7-1.1-0.7c-0.7-0.4-1.1 0-1.5 0.7l1.5 0.7z"/>
<path class="st1" d="m67.4 132.7c0 0.4 0 0.7 0.4 0.7 0.3 0.3 0.7 0.4 1.1 0.4l-1.5-1.1z"/>
<path class="st1" d="m109.7 72.4c0.4-2.2 0-3.7-0.7-4.4s-1.8-0.4-3.3 0.7c-0.7-0.4-1.8 0-2.9 1.1 0.4-0.4 0.4-1 0-1.5 1.1-0.4 1.8-0.7 2.2-1.8s0.7-1.8 0.4-2.9c0.4-1.5 1.5-2.9 2.2-4.4 1.1-2.2 0.4-2.9-1.8-2.2 0.9-0.7 1.6-1.8 1.8-2.9 0-1.1-0.4-2.1-1.1-2.9-0.4-0.7-0.7-0.7-1.5-0.4 0.3-0.4 0.4-0.9 0.4-1.5-0.4-1.5-0.7-2.6-1.1-4 0-2.6-0.7-3.6-1.8-3.3 0-1.5-0.7-2.6-1.5-4-1.1-1.5-1.8-2.2-2.6-1.1-1.8-2.6-3.3-3.7-4.8-3.3 0-1.1-0.4-2.1-1.1-2.9 0.3-1.4-0.1-2.9-1.1-4-0.7-0.4-1.5 0-1.8 1.5 0-1-0.3-2.1-0.8-3-0.2-1-1.1-1.8-2.2-1.8h-1.1c-0.5-0.5-1.2-0.7-1.8-0.7-1.5-1.5-2.9-1.8-4-0.4v-1.3c-0.4-1.5-1.5-1.8-2.6-1.1-1.6-1.6-3.5-3-5.5-4-1.1-0.4-2.2-0.4-2.6 0.4-0.6-0.6-1.4-1-2.2-1.1s-1.5-0.3-2.2-0.7c-1.1 0-1.5 0.4-1.5 1.8-1.1 0.1-2.3 0.3-3.3 0.7-0.7 0.4-0.7 1.1-0.4 1.8 0.5 0.8 1.1 1.5 1.8 2.2-0.4 0.4-0.4 0.7-0.4 1.5 0 0.7 0.7 1.1 2.2 1.5 0.9 0.4 2 0.4 2.9 0-0.3 0.7 0 1.5 0.6 1.8 0 0 0.1 0 0.1 0.1h0.4c1.1 1.4 3.1 1.9 4.8 1.1l-0.4 1.5 2.6 1c0 1.2 0.7 2.2 1.8 2.6l1.5 0.4c-0.4 0-1.1 0.7-1.1 0.7-0.4 0.4-0.4 1 0 1.5 0.2 0.2 0.5 0.3 0.7 0.4h3.3c0 0.4 0.4 0.7 0.4 1.1 0.4 0.7 0.9 1.3 1.5 1.8 1 0.8 2.1 1.4 3.3 1.8-0.4 0.7-0.4 1.1-0.7 1.8-0.4 1.1-0.4 2.2 0 3.3-0.4 0.2-0.8 0.4-1.1 0.7-0.7 1.1 0.7 2.9 1.1 3.7-0.3 0-0.5 0.2-0.7 0.4-0.7 0.4-0.4 2.6 1.5 2.9 1.2 0.7 2.3 1.6 3.3 2.6l1.5 2.2c0.7 1.1 0.7 1.5 1.8 1.5 1 3.1 2.5 6 4.4 8.7 1.1 1 1.8 2.2 2.2 3.7 0 0.7-0.4 1.5 0 2.2-0.2 2-0.6 3.9-1.1 5.8-1.8-0.7-2.2 0.4-2.6 1.5-0.4-0.2-0.9 0-1.1 0.4-0.1-0.8-0.9-1.3-1.6-1.2-0.1 0-0.2 0-0.2 0.1-0.4 0.4-0.7 0.4-1.1 0.7-0.3-0.3-0.4-0.7-0.4-1.1v-2.2c0.4-0.4 0.4-0.7 0.7-1.1 0.4-2.1 0.3-4.2-0.4-6.2 0-0.6-0.5-1.1-1.1-1.1 0 0-1.1 0-1.5 0.7 0-0.4-0.7-0.7-1.1-0.7-1.5-0.4-2.9 2.2-2.9 5.1-1.1-0.7-2.6-0.4-2.2 0.7 0.4 1.8 3.3 5.5 3.3 6.9-0.7-0.7-2.9-0.7-2.9 1.1 0.1 0.8 0.3 1.5 0.7 2.2-0.4 2.2 1.8 3.7 4 5.5-0.1 0.5 0.1 1 0.4 1.5-0.4 0.7-2.6 4-2.6 4s-1.8-0.7-2.2-0.4-0.7 1.1-1.1 1.5l0.4 2.6c0.1 1.3-0.4 2.5-1.5 3.3-1 1-1.8 2.1-2.6 3.3-0.5 1.2-1.4 2.1-2.6 2.6l-1.1-1.1s-0.4-0.4-0.4 0c-3.1 1.2-6 2.6-8.8 4.4-1.5 1-2.6 2.4-3.3 4h-2.5l-2.2-2.2c-1-0.4-2.1-0.3-2.9 0.4-1.4-0.3-2.8-0.1-4 0.7-0.6 0.3-1.2 0.4-1.8 0.4l-3.3-3.7c-3.5-1.8-7.2-3-11-3.7-0.7 0.4-1.1 1.1-1.5 1.5-1.1-0.7-2.1-1.5-2.9-2.6l-1.8-2.2c-1.1-1.2-1.8-2.7-1.8-4.4l0.3-1.9c0-0.4 0-0.7-0.4-0.7-0.5-0.5-1.2-0.7-1.8-0.7 0 0-0.4 0-0.7 1.1 0 0.4-2.2-2.9-2.2-2.9 1.1-1.4 1.9-3 2.2-4.7 0.4-2.2 0.7-4 1.1-6.2 0-0.2 0.2-0.4 0.3-0.4 1.5-3 2.2-6.5 1.8-9.9-0.2-0.3-0.3-0.7-0.4-1.1h-0.4l0.4-0.7c0.4-0.7 0.4-0.7 0-1.1-0.8-0.1-1.5 0.1-2.2 0.4l-1.3-3.7h-0.4c-1.8 1.8-3 4.1-3.3 6.6l-0.3 0.4c-2.4 3-4.2 6.5-5.2 10.2-0.4-0.7-0.7-1.8-1.1-2.6-0.3-0.7-0.4-1.4-0.4-2.2 0.4-0.7 0.4-1.5-0.4-1.8-0.8-1.9-1.4-3.8-1.8-5.8 0.4-1.5 0.7-2.9 1.1-4 1.1-2.2 2.2-4.8 3.3-6.9 0 0 0.7-0.7 1.1-0.7 2.2-0.7 12.5-13.5 11.4-19.7 1.8-2.9 3.3-5.8 4.8-8.8h0.7l0.7-0.4c2.2-0.7 4-1.8 5.9-2.6l2.6-1.4c1.9-0.7 3.7-1.9 5.2-3.3 1.5-1.2 2.6-2.9 2.9-4.8-0.4-0.7-1.1-0.7-2.6-0.7 0.7-0.8 1.1-1.8 1.1-2.9-0.7-0.7-2.2-0.7-5.2-0.4-2.9 0.7-5.6 1.9-8 3.6-4.5 2.9-8 6.9-10.3 11.7l1.5-2.9c0.7-1.5 1.5-3.3 2.2-5.1 0.4-0.7 0.4-1.5 0-2.2-0.3-0.3-0.7-0.3-1.4-0.3-1.5 0.6-2.8 1.5-4 2.6-2.2 2.2-4 4.8-5.1 7.7-1.3 2.2-2.4 4.5-3.3 6.9 0.4-1.7 0.4-3.4 0-5.1 0-0.4-0.7-0.7-1.5-0.4-0.8 0.6-1.4 1.4-1.9 2.2-0.7 1.1-1.5 1.8-2.2 2.9-0.8 1.2-1.6 2.4-2.2 3.6-1.1 1.8-1.9 3.8-2.2 5.8-0.8 3-1.3 6-1.5 9.1-0.2 2.6-0.1 5.1 0.4 7.7 0.4 2.1 1.1 4.2 1.8 6.2 0.5 0.9 1.3 1.7 2.2 2.2 0.4 1.1 0.7 2.6 1.5 4.8 0.3 0.8 0.5 1.7 0.4 2.6-0.1 0.4 0.1 0.8 0.4 1.1 0.5 0.3 0.8 0.9 0.8 1.5 0.4 2.2 1.5 4 2.2 5.8 0 1.1-0.4 1.8-0.4 2.9-2.4-5.9-3.8-10.6-5.3-13.9-2.6-5.5-4.4-8-5.9-7.7-0.4 0-1.1 0.7-1.1 1.8v2.9c0 1.8 0.4 3.3 0.4 5.1 1 5.4 3.3 10.4 6.6 14.7l4.8 5.5c1 0.6 2 1.4 2.9 2.2 0.8 0.5 1.7 0.6 2.6 0.4 1.2 1.9 2.5 3.7 4 5.5 1.1 1.5 2.2 2.6 3.3 2.2 0.3 1 1.2 1.6 2.2 1.5h1.2c1.1 1.2 2.4 2.3 3.7 3.3l-1.1 3.7c-1.9 0.3-3.9 0.4-5.9 0.4-1.8-1.1-4-2.9-7.4-5.1v-4c-0.1-1.1 0.1-2.3 0.7-3.3-0.1-0.8-0.5-1.6-1.1-2.2-0.7-0.7-2.2-1.1-2.6-0.7s0 0.4 0 0.7v0.7c0-0.4 0-0.4 0.4-0.4 1.8 0.4 2.6 1.1 2.6 1.8-0.6 1-0.8 2.1-0.7 3.3v3.3c-2.3-1.5-4.8-2.9-7.4-4h1.1c0.4 0 0.7 0 0.7-0.4s0-0.4-0.7-0.4c-0.9-0.1-1.8 0.1-2.6 0.4-0.3 0.2-0.4 0.6-0.2 0.9 0 0.1 0.1 0.1 0.2 0.2 2.9 1.5 5.5 2.9 8.5 4.8 3 1.8 6 3.7 8.8 5.8 2.2 0 4.8-0.4 8.5-0.7l5.5-1.1c2.2-0.4 4.8-0.7 7.4-1.1 1.1-0.3 2.2-0.4 3.3-0.4 1.3 0.1 2.7-0.1 4-0.4 1 1.7 1.8 3.5 2.2 5.5 0 0.7 0 1.5-0.4 1.5-3.7 1.5-7.4 2.6-11 3.7l-6.2 1.5c-4.4 0.7-9.2 1.5-13.6 1.8-3.3-1.5-6.6-3.3-9.9-5.1-2.9-1.5-5.5-3.7-8.1-5.5s-2.9-2.9-2.9-3.3c1.1-1.5 1.9-3.3 2.2-5.1v-1.5c-0.4-1.5 0-2.2 1.1-2.2h5.9c0.4 0 0.7 0 0.7-0.4l1.1-1.8-0.7-0.4-0.7 1.5v0.4h-6.4c-0.6 0-1.1 0.3-1.5 0.7-0.4 0.8-0.4 1.7 0 2.6v1.1c-0.6 1.8-1.5 3.5-2.6 5.1 0 0.5 0.1 1 0.4 1.5 0.7 1.1 1.5 2.1 2.6 2.9 0.7 0.7 1.8 1.5 2.6 2.2 2 1.3 4.1 2.6 6.3 3.7 3.3 1.8 6.6 3.7 9.9 5.1 0.7 0 5.1-0.7 13.2-1.8v0.7c-2.2 1.8-3.7 2.6-4.4 2.2s-1.1 0.7-0.7 2.2c0.4 0.7 0.7 1.1 1.5 1.1l0.7 0.7 2.2 1.5c0.8 0.4 1.8 0.4 2.6 0 0.8-0.3 1.3-1 1.5-1.8l0.4-0.4 2.6-2.6 1.8-1.4c1.1-0.1 2.2-0.6 3-1.5 0-0.6 0.3-1.1 0.7-1.5l2.2-1.5c0-0.4 1.1 0 2.9 1.1 0.7 0.4 1.5 0.4 2.2 0l1.8-1.1c3.1 1.4 5.8 3.4 8.1 5.8 0 0.4 0 0.7 0.7 1.5 0.7 0.7 1.6 1.1 2.6 1.1l0.7 1.8 0.7 0.4c1.4 0.1 2.7-0.5 3.7-1.5l1.5-0.4c0.7-0.3 1.1-1.1 1.1-1.8l-0.7-0.4-1.1-0.4c-1.7-0.8-3.3-1.7-4.8-2.9l-1.1-0.7c5.8 0.9 11.7 1.5 17.6 1.8 1.4 0.1 2.7-0.5 3.7-1.5 1.5-1.1 5.9-4.4 13.2-9.5 1.1-1.2 1.9-2.5 2.6-4-0.8-0.7-1.4-1.6-1.8-2.6-0.4-0.9-0.7-1.9-0.7-2.9v-1.8c0-0.7 0-1.1-0.7-1.5-0.4-0.4-0.9-0.6-1.5-0.7h-4.8c-0.7 0-1.5-0.4-1.5-0.7v-2.2c0-0.7 0-1.1-0.7-0.7-1.3 0.3-2.5 0.8-3.7 1.5-0.5 0.4-0.6 1.2-0.1 1.7l0.1 0.1c0.5 0.3 0.7 0.9 0.7 1.5-0.1 2-0.3 3.9-0.7 5.8-2 1.9-4.2 3.5-6.6 4.8-2.1 0.2-4.2 0.1-6.3-0.4-0.9-0.9-1.4-2-1.5-3.3 1.2-0.8 2.4-1.5 3.7-2.2l2.2-0.4c0.7 0 0.7-0.7 0.7-1.5 0.7-0.4 1.1-0.7 1.1-1.5l3.7-4.4c1.1-1 2.5-1.6 4-1.8 2.5-0.4 4.9-1.4 7-2.9 0.4-0.6 0.4-1.3 0-1.8 1.5-1.1 2.9-2.5 4-4 0.8-1 1-2.5 0.4-3.7 1.5-1.4 2.5-3.1 3-5.1 0.4-1.2 0.4-2.5 0-3.7 0.7-0.4 1.3-0.9 1.8-1.5 0.8-1 0.7-2.5-0.3-3.3 1.4-1.5 1.6-3.7 0.8-5.5zm-61.1-52.2c-0.1 1.1-0.6 2.2-1.5 2.9-1.8 1.5-3.8 2.9-5.9 4-2.9 1.1-5.8 2.4-8.5 4v-0.4c3.8-3.1 7.8-5.8 12.1-8 1.1-0.7 0.7-0.7-0.4-0.4-1.6 0.7-3.1 1.5-4.4 2.6l-8 4.8v-0.7c3.7-3.4 7.9-6.2 12.5-8.4 1.3-0.7 2.7-0.8 4.1-0.4zm-14.7 1.5c2.4-2.1 5.3-3.6 8.5-4.4 1.3-0.4 2.6-0.7 4-0.7 0.7 0 0.7 0.4 0.4 1.1l-1.4 1.8c-1.9 0.3-3.6 1.1-5.2 2.2-2.5 1.6-5 3.3-7.4 5.1l-0.4 0.4c-0.9 0-1.8 0.3-2.6 0.7 3.2-2.9 6.6-5.4 10.3-7.7 1.2-0.5 2.3-1.1 3.3-1.8-1.4 0.4-2.8 1-4 1.8-2.9 1.8-5.9 3.6-8.8 5.8l-4 3.6c2.1-2.8 4.5-5.5 7-8 0 0 0.3 0.1 0.3 0.1zm-4 7.3c0.4-0.4 0.7-0.4 1.5-0.4v1.8c-0.4 1.7-1 3.3-1.8 4.8l-2.2 4.8c-1.8 0.3-3.4 1-4.8 2.2 0.7-1.5 1.8-2.9 2.9-4.8 1.1-1.8 2.9-4.4 5.1-7.7 0.4-0.7 0.4-0.7 0-0.4-1.1 1.1-2.1 2.3-2.9 3.7-1.5 2.2-3.7 5.5-6.6 10.2-0.7 1.1-2.6 3.7-5.5 8l0.4-1.1 4-6.9 3.7-6.9c1.4-2.8 3.6-5.3 6.2-7.3zm-15.9 16c2.3-3.9 4.4-7.9 6.3-12 0.8-1.9 2-3.6 3.3-5.1 0.4-1.1 0-1.1-0.7 0-2.9 3.8-5.4 8-7.4 12.4l1.1-3.3c0.7-1.5 1.1-3.3 2.2-4.8 0.9-1.9 2-3.8 3.3-5.5 0.8-0.9 1.5-1.9 2.2-2.9 0.7-0.8 1.6-1.4 2.6-1.8 0.2 0.2 0.3 0.4 0.4 0.7l-3.3 8.4c-2.3 4.6-5.2 8.8-8.5 12.8-1.5 1.5-2.2 2.6-2.6 2.9s-0.7 0.7-0.7 1.1l0.4-1.1 1.4-1.8zm1.5 7.3l-2.2 4.4h-0.4l1.1-4.4h1.5zm-4.8 11l0.3-1.8 0.4-1.8 1.1-0.4-1.5 3.6-0.7 2.9 0.4-2.5zm-0.8-6.9l1.1-5.5 0.4 0.7-1.5 4.8zm-2.5 12.7v-0.4c0-2.6 0.5-5.2 1.5-7.7-0.8 3.8-1.2 6.3-1.5 8.1zm-0.8-3.6c-0.3-3.8-0.1-7.6 0.7-11.3 0.5-4.1 1.4-8.1 2.9-12 0.7-1.1 0.7-1.5 0-0.7-3 6.2-4.7 13.1-4.8 20-0.1 2.2 0.1 4.4 0.4 6.6 0.4 1.5 0.7 2.2 1.5 2.6 0.2 0.3 0.7 0.4 1 0.1 0.1 0 0.1-0.1 0.1-0.1 0.1 0.5-0.1 1-0.4 1.5-1-0.6-1.8-1.5-2.2-2.6-0.7-1.5-1.1-3.1-1.5-4.8-0.6-2.5-0.9-5.1-0.7-7.7 0.3-3.2 0.8-6.4 1.5-9.5 1.1-4.8 3.7-8.8 6.6-12.4 0.7-0.7 1.1-1.1 1.5-0.7v5.1c-0.3 1.9-0.8 3.7-1.5 5.5-1.1 3.7-2.2 7.7-2.9 11.3-0.7 2.5-1.4 5.8-2.2 9.1zm1.9 6.6v-1.1c1.1-1.5 1.9-3.3 2.2-5.1l2.2-5.8 2.6-6.2c1.7-3.4 3.8-6.6 6.3-9.5 0.8-1.5 2.3-2.6 4-2.9 0.4 0.4 0.4 1.1 0 2.6s-1.1 2.9-1.5 4.4c-2.1 4.1-4.9 8-8.1 11.3l4.5-7.3 2.2-4c0.7-1.5 0.7-2.2 0-1.8-4.4 6.9-7 11-7.7 12.8s-1.8 3.3-2.6 4.8c-0.8 1-1.4 2.1-1.8 3.3-0.5 1.4-1.2 3.1-2.3 4.5zm17.6 2.5c-0.3 2.5-0.8 4.9-1.5 7.3 0.1-1.6-0.1-3.2-0.4-4.8l0.7-1.9c0-0.7 0-0.7-0.4 0l-0.2 0.8v-1.4l1.1-1.1c0.7-0.7 0.7-0.3 0.7 1.1zm-1.1-3.6c0.7 0 0.7 0 0.4 0.7l-1.1 1.8c0-0.7-0.4-1.1-0.4-1.8 0.4-0.4 0.8-0.4 1.1-0.7zm-5.1 2.9c0.7-3.7 1.8-5.5 2.6-5.8 0.7 2.2 1.1 4.6 1.1 6.9 0.4 3 0.4 6.1 0 9.1 0 2.4-0.7 4.8-1.8 6.9l-0.8 1.9v-13.5c0-2.9 0.4-5.8 0.7-9.5v-0.4c-0.7 4.6-1.1 9.2-1.1 13.9v8.8l-0.7-1.2c-0.6-3.1-0.9-6.3-0.7-9.5 0.1-2.5 0.3-5.1 0.7-7.6zm-5.6 11c1-3.6 2.7-7 5.1-9.9-0.5 1.3-0.9 2.6-1.1 4-1.8 3.2-3.3 6.6-4.4 10.2-0.4 1.1-0.4 2.6-0.7 3.7 0.1-2.7 0.5-5.4 1.1-8zm4 5.5l-1.5-1.8 1.1-2.6c0 1.4 0.2 2.9 0.4 4.4zm13.3 27l0.7-2.6 2.9 1.8s-3.6 0.8-3.6 0.8zm7.3-1.1l-5.1-3-4.4-2.9-0.7-1.1c-0.3-0.3-0.7-0.4-1.1-0.4-0.4 0.4-0.7 0-1.1-0.7-1.2 0.7-2.8 0.4-3.7-0.7l-2.2-2.6-1.8-3.3-1.1-0.7c-0.4 0.4-0.7 0.4-1.5 0.4-1.2-0.2-2.2-0.9-2.9-1.8-1.4-2.1-2.6-4.3-3.7-6.6-1.9-3.7-3.7-7.7-5.6-11.3-0.7-2.2-1.1-3.7-1.5-4s-0.4-0.7-0.4 0c0.4 1.1 0.4 2.6 1.1 3.7 1.1 2.9 2.2 5.5 3.3 8 1.5 2.9 2.9 5.5 4.4 8-2.8-2.8-5.1-6-7-9.5-1.4-2.7-2.3-5.5-2.9-8.4-0.3-1.3-0.4-2.7-0.4-4v-3.2c0.4-0.8 0.4-0.8 0.8-0.8s0.7 0.7 1.8 1.8c1.6 2.6 2.8 5.5 3.7 8.4 1.5 4.4 2.6 7.3 2.9 8.4s0.7 2.6 1.1 3.7c0.3 1 0.8 2 1.5 2.9 0.6 1.2 1.3 2.3 2.2 3.3 1.1 0.7 1.8 0.7 2.2 0.4l-2.2-4.4h-0.6v-1.5c0.2-1.3 0.4-2.7 0.7-4 1.1-3.3 2.4-6.4 4-9.5-0.3 1.2-0.4 2.4-0.4 3.7-1.5 3.7-2.9 6.6-3.7 8.8-0.4 1.5-0.4 2.2 0 2.2l0.4-0.4-0.3-1.2 0.4-0.7 0.7 1.5 0.4-0.4 0.4 0.7-0.4 0.7 2.6 3.7 0.7-0.7 0.4 0.7c-0.6 0.5-1 1.2-1.1 1.9 0.7 1.1 1.5 2.6 2.2 3.7 1.5 1.8 2.6 2.6 3.3 1.5 0.4-0.4 0.7 0 1.1 0.4 0.6 0.5 1.1 1.1 1.5 1.8v-1.5l-2.2-2.6-1.5-2.9c-0.7-1.1-1.8-2.6-2.6-3.7l-1.8-3.3c-0.7-1.1-1.5-2.6-2.6-4v-0.8l2.2 2.9c1.5 1.7 2.8 3.6 4 5.5 0.7 1.1 1.1 1.5 1.5 0.7l0.4-1.1 0.8 0.3-0.7 2.6v0.7c0 0.7 0 1.1 0.4 1.1s0.4 0.4 0.7 1.1c0.7 1.1 1.5 1.8 2.2 2.9 1.2 1.4 2.5 2.6 4 3.7 1.5 0.7 2.6 1.8 3.3 2.2s1.5 1.1 1.1 1.8l1.1 0.4-0.3-1.4h0.7c0.5 0.4 0.8 0.9 1.1 1.5 1.1 0.7 1.8 1.5 2.9 2.2l-2.7-0.8zm-21.6-21.2l0.4-0.4 1.8 2.9v0.4l-2.2-2.9zm3.3 6.2l0.7-0.7 1.8 2.6 1.1 1.8 0.4 1.1c-0.7-0.4-1.1-1.1-1.5-1.5l-1.1-1.5-1.4-1.8zm22.8 14.2l-2.9-2.2c-0.8-1-1.6-2-2.6-2.9-0.4-0.4-0.7-1.1-1.5-1.5-0.6-0.3-1.2-0.5-1.8-0.4-0.4 0-0.7 0.4-1.1 1.5l-0.4-0.4c0-0.6 0.3-1.1 0.7-1.5s1-0.4 1.5 0l3.3 1.5 5.5 1.8c1 0.8 1.9 1.8 2.6 2.9-1 0.6-2.1 1-3.3 1.2zm1.5 13.5c-1.9 1.9-4 3.6-6.3 5.1l-0.4-0.4c2-1.2 4-2.5 5.9-4l1.1-1.1h-0.7c-0.9 0.8-1.9 1.5-2.9 2.2-1.2 0.8-2.4 1.5-3.7 2.2l-1.8 0.7 0.4 0.4h1.5c0.6 0.3 1 0.8 1.1 1.5 0 0.4-1.1 0.7-2.2 0.4l-1.5-0.7c-0.5-0.6-1.1-1-1.8-1.1l-0.7-0.4 0.4-0.7 1.8 0.7h0.7l-0.4-1.1 2.2-1.5c0.7-0.4 0.7-0.7 0.7-1.1v-1.1c1.1 0.2 2.3 0.1 3.3-0.4 1.1-0.4 2.2-0.7 3.3-0.7s1.1 0.4 0 1.1zm27.6-101.5v-1.5l-1.1 0.4c-1.3 0.4-2.8 0-3.7-1.1-0.7 0-1.1-0.4-1.1-0.7 0-0.4 0.4-1.1-0.4-1.1l-1.8 0.4c-0.9 0-1.7-0.4-2.2-1.1-0.4-0.4 0-1.1 0.4-1.8-0.8-0.4-1.6-0.8-2.2-1.5-0.4-0.4 0-1.1 0.4-1.5 1.2-0.4 2.5-0.4 3.7 0-0.3-0.4-0.4-0.9-0.4-1.4 0-0.4 1.1-0.4 3.3 0.7l1.5 0.7c0.4-0.7 0.8-0.7 1.9-0.7 1.1 0.5 2 1.1 2.9 1.8 1.2 0.8 2.2 1.8 2.9 2.9 0.4-0.5 1-0.5 1.5-0.2 0.2 0.1 0.3 0.3 0.3 0.5v1.5c-0.9-1-2.5-1.1-3.5-0.2l-0.2 0.2-0.7-0.3c-1-0.9-1.7-2-2.2-3.3-0.4-1.1-0.4-1.1-0.4-0.4 0.3 1.2 0.8 2.3 1.5 3.3-1.6-0.6-3.1-1.4-4.4-2.6-0.8-0.8-1.6-1.6-2.2-2.6-0.4-0.7-0.7-0.7-0.7 0 0.4 1.1 1.2 2 2.2 2.6l-1.5-0.4c-1.1-0.4-2.6-0.7-3.7-1.1-0.4 0-0.4 0 0 0.4 1.1 0.4 2.6 0.7 3.7 1.1 0.7 0 1.1 0.4 1.8 1.1-1.2 0.4-2.4 0.7-3.7 0.7h-1.1c0.4 0 0.4 0.4 0.7 0.4 1.6 0.1 3.2-0.1 4.8-0.4 1.5 0.7 2.6 1.1 4 1.8-1-0.3-2.2-0.1-2.9 0.7-0.4 0.4 0 0.4 0.4 0l3.3-1.1 1.1 0.4c0.1 1.2 0.3 2.5 0.7 3.6l-0.7 0.4-2.2-0.6zm7.4 7c-2.2 0-2.9 0-2.9-0.4s0-0.7 0.7-1.1l0.3-0.7c-1.5-0.7-2.6-1.5-2.9-3.3l1.1-0.4c0.4-0.7 0.4-1.1 0-1.5-0.6-0.7-0.8-1.6-0.7-2.6 0.4-1.1 1.8-1.1 3.7 0 0.7-1.5 1.8-2.2 2.9-1.5-1.1 0-2.2 0.7-2.2 1.5v2.6c-0.4-0.7-1.1-1.1-1.5-1.5-1.1-0.4-1.5-0.4-0.7 0 0.7 0.6 1.3 1.4 1.8 2.2-0.9 0.8-2.1 1.2-3.3 1.1-0.4 0-0.4 0.4 0 0.4 0.6 0 1.3-0.1 1.8-0.4-0.4 1.6 0.3 3.3 1.8 4 0.8 0.8 0.4 1.2 0.1 1.6zm1.4 1.1c0-0.4 0.4-0.7 1.5-0.7s1.1-0.4 0.4-0.7c-1.1-0.6-2.1-1.5-2.9-2.6-0.7-0.7-0.7-1.1 0-1.5l0.7-0.4 0.4-0.7-0.4-2.2c-0.4-1.1 0-1.8 1.1-2.6 1.3 0 2.6 0.4 3.7 1.1 0-0.7 0.4-0.7 1.1-0.7s1.5 1.8 2.2 4.8l1.1 0.4c0.2-0.4 0.4-0.8 0.7-1.1 0.5 0.6 0.9 1.4 1.1 2.2 1.1 1 1.5 2.6 1.1 4-0.8 0.7-1.1 1.9-0.7 2.9l-0.4-1.1c-0.3-1.3-0.4-2.7-0.4-4v3.3c-1-1.5-2.3-2.8-3.7-4-0.3-1.1-0.4-2.2-0.4-3.3s-0.4-1.5-0.4-0.7c-0.4 1.2-0.4 2.5 0 3.6-1.3-1.4-2.6-2.8-3.7-4.4-0.4-0.7-0.4-0.7-0.4-0.4 0.6 1.3 1.3 2.5 2.2 3.6 0.7 1.1 1.8 1.8 2.2 2.6-1.1-0.4-1.8-0.4-2.9-0.7-0.8-0.1-1.5-0.3-2.2-0.7-0.7 0-0.7 0 0 0.4 0.8 0.5 1.7 0.7 2.6 0.7l3.3 1.1c1 0.6 1.8 1.5 2.2 2.5l0.7 1.8c-1.2-0.7-2.6-1.2-4-1.5-0.9 0-1.8-0.3-2.6-0.7-1.1-0.4-1.1-0.4-0.4 0.4 0.9 0.5 1.9 0.7 2.9 0.7 1.6 0.4 3.2 1 4.7 1.8v0.4c-0.4 0.4-0.4 0.7-0.4 1.5l0.4 1.4c-0.4-0.4-0.7-0.4-1.8 0.7 0.4-0.4 0.4-1 0-1.5-0.9-1.3-2.4-2.3-4.2-2.8l-0.4 0.4c-1.7-0.1-3.2-1.5-4-3.3zm15.9 32.4c-0.4-0.7-1.1-1.8-1.8-3.3s-1.5-2.6-1.8-3.3c-0.4-0.8-0.4-1.7 0-2.6 0.4-0.7 0.4-1.5 0.7-2.2v-0.4c-0.4 0.7-0.7 1.8-1.1 2.6l-1.5-3.6c0.3-2.1 1.1-4.1 2.2-5.8 0.4-0.7 0.4-0.7 0-0.4-1.2 1.5-2.1 3.2-2.6 5.1l-2.2-4.4c0.3-1.6 0.8-3.2 1.5-4.8 0.7-1.1 0.4-1.1-0.4 0-0.6 1.1-1.1 2.4-1.5 3.7-0.7-2.6-1.1-4.8-1.8-6.2l-0.4-0.4 0.4 0.7c0.3 2 0.8 3.9 1.5 5.8-0.8-0.8-1.8-1.4-2.9-1.8 1 0.6 2 1.4 2.9 2.2 0.4 1.1 1.1 2.2 1.5 3.3-1.3-0.8-2.6-1.5-4-2.2-0.7 0-0.7 0 0 0.4 1.8 0.4 3.4 1.4 4.4 2.9l1.5 3.7c-0.4 0-1.1-0.7-1.8-2.2-1.2-1.7-2.9-3-4.9-3.7-0.5-0.3-0.7-0.9-0.7-1.5 0-0.4 0.4-0.7 1.5-0.7-0.4-0.7-0.4-1.1-0.7-1.8l-0.4-0.7c-0.7-1.5-0.3-2.2 1.1-2.2-1.1 0.4-1.1-0.4-1.1-0.7-0.1-0.9 0.2-1.8 0.7-2.6 0.4-0.4 0.4-1.1 0.7-1.5l2.2 1.1c0.7 0.3 1.1 1.1 1.1 1.8l-0.4 1.8c0 0.4 0.4 0.4 1.1-0.4 0.3-0.7 0.8-1.2 1.5-1.5 0.4 0.4 1.1 0.7 1.5 1.1 0.4 1.5 0.3 3-0.4 4.4l-0.8 2.1c1.5-1.8 2.6-2.9 3.7-2.9v4c0 0.7-0.2 1.3-0.7 1.8-0.7 0.6-1.2 1.6-1.1 2.6 1.5-1.1 1.8-0.7 1.8 0.4l-0.7 2.9c-0.4 1.5 0 2.2 0.7 1.8s1.1 0 1.1 0.4v1.5c-0.3 0.5-0.5 1.2-0.4 1.8 0 0.4 0.4 0.4 0.4 0.7h1.1c0.4 0 1.1 0 1.1 0.7v1.8c0 0.7 0.3 1.3 0.7 1.8 0.4 0.4 0.7 0.7 1.1 0.7l0.7-0.7c-0.7 0-1.1-0.4-1.1-1.8v-2.9c-0.4-0.7-0.7-1.5-1.1-1.5-1-2.1-1.9-4.3-2.6-6.6h1.5c1.1 3.7 1.8 5.5 2.2 5.8s0.7 0.7 0.7 1.1c0 0.9 0.1 1.7 0.4 2.6 1.4-0.8 1.9-2.6 1.1-4 0-0.4-0.4-0.4-0.7-0.7-0.7-0.3-1.2-0.8-1.5-1.5-0.4-0.7 0-1.1 0.7-1.5s-0.7-1.5-3.7-3.3c-1.5-1.1-1.8-1.8-1.5-2.6s0.7-0.4 1.1 0c0.3 0.2 0.7 0.4 1.1 0.4 0 0 0-1.1-0.7-1.1s-1.1-0.4-1.1-0.7v-4.8c-0.4-0.7-1.5-0.7-2.6 0 0.3-0.7 0.4-1.4 0.4-2.2s-0.4-1.5-1.1-1.8l-0.8-1.8c0-0.7 0.4-1.1 1.1-1.5-0.4-0.9-0.4-2 0-2.9 0.4-0.4 0.4-1.1 0.7-1.5 0-0.4 0.4-0.4 1.1 0 1.3 1 2.4 2.3 3.3 3.7 0.7-0.7 1.5-0.4 1.8 0.7 0.8 1.3 1 2.9 0.7 4.4 1.8-0.4 2.2 0.4 1.8 2.2 0.7 1 1.1 2.1 1.1 3.3 0.1 0.7-0.1 1.5-0.4 2.2-0.4 0.4-0.4 1.1-0.7 1.5 0 0.4 0 0.4 0.4 0 0.4-0.7 1.1-1.1 1.8-1.1 0.5 0.8 0.7 1.7 0.7 2.6 0 0.6-0.3 1.1-0.7 1.5-0.4 0.6-0.8 1.2-1.1 1.8 0 0.4 0 0.7 0.7 0.7l1.1-0.4c0.7 0 0.7 0.4 0 1.5-0.4 1.1-1.1 1.8-1.5 2.9-0.3 0.6-0.4 1.2-0.4 1.8s-0.2 1.2-0.4 1.8v-4c-0.4-1.5-0.4-3.3-0.7-4.8 0.6-0.9 1.1-1.9 1.5-2.9 0.4-0.7 0.4-1.1 0-0.4-0.3 1-0.8 1.8-1.5 2.6-0.4-1.5-1.1-3.7-1.5-5.8 0.7-1.2 1.1-2.6 1.1-4 0-1.5 0-1.5-0.4-0.4 0 1.5-0.7 2.6-1.5 4-0.4-1.8-1-3.5-1.8-5.2 0.3-1.1 0.4-2.2 0.4-3.3s0-1.1-0.4-0.4c0.1 0.7-0.1 1.5-0.4 2.2l-1.5-3.6-0.7-2.2c-0.4-0.7-0.4-0.7-0.4 0l0.7 2.6c-0.4-0.7-1.1-1.2-1.8-1.5-0.7-0.4-0.7-0.4-0.4 0 0.9 0.8 1.8 1.6 2.6 2.6l1.8 4.4c-1-1.1-2.3-1.8-3.7-2.2-0.7-0.4-0.7 0 0 0.4 1.5 1.1 2.9 2.5 4 4l1.5 4.4c-1.2-0.8-2.2-1.8-2.9-2.9-0.4-0.4-0.7-0.4 0 0.4 1 1.3 2.1 2.5 3.3 3.7l1.1 4c-1.2-1.2-2.5-2.2-4-2.9-0.7-0.4-0.7-0.4 0 0.4 1.7 1.3 3.1 2.7 4.4 4.4 0.4 2.2 0.7 4.4 0.7 6.6 0 0.7-0.7 1.5-1.8 1.8l-0.4 3.3h-1.8c0-1.1-0.8-1.9-1.6-2.7zm2.2 3.3h1.5c-0.7 3.3-1.5 6.9-1.8 9.1l-0.7-0.4c0.6-2.8 1-5.7 1-8.7zm-11.4 18.7c-0.4 0-1.1-0.7-2.2-1.8s-1.5-1.8-1.1-2.9c-0.5-0.3-0.7-0.9-0.7-1.5-0.4-0.4-0.4-1 0-1.5 0.4-0.4 1.1-0.4 2.6 0.7 0.4-0.7 0.4-1.5 0-2.2l-1.2-1.8c-0.4-1-1-1.9-1.8-2.6-0.4-1.1-0.7-1.5-0.4-1.8s0.7 0 1.1 0.4c1.1-1.1 1.8-1.5 2.2-1.1 0.5 0.8 0.7 1.7 0.7 2.6 0.4 1.2 0.4 2.5 0 3.6l-0.4 0.4 0.4 0.4c0.1 1 0 2-0.4 2.9-0.1 0.4 0.1 0.8 0.4 1.1v-1.1c0-0.5 0.1-1 0.4-1.4 0-0.4 0.4-1.1 0.4-1.5l-0.4-0.4c0.4 0 0.4-0.4 0.7-0.4v-2.9c0.1-0.9 0-1.7-0.3-2.6 0-0.4-0.4-1.1-0.4-1.5s-0.3-0.7-0.7-0.7-1.1 0.4-1.8 1.5c0.4-1.1 0.7-2.6 1.1-3.7 0.4-0.7 0.7-0.7 1.1-0.7s0.7 0.3 0.7 0.7 0.4 0.4 0.7-0.4 0.4-0.7 0.7-0.4l0.7 0.7c0 0.4 0.4 0.7 0.4 1.1 0 0.7 0.4 1.5 0.4 2.6 0.1 0.7-0.1 1.5-0.4 2.2-0.4 0.4-0.4 0.7-0.4 1.5 0 1.1 0.1 2.2 0.4 3.3 0.3 0 0.5-0.2 0.7-0.4 0.3-0.3 0.7-0.4 1.1-0.4s0.4 0.7 0.4 1.8 0 1.5 0.4 0.4 0.4-1.5 1.1-1.5 0.7 1.1 0.4 3.7c-1.4 1-2.6 2.3-3.7 3.7-0.4-0.7-0.4-1.5 0-2.2 0.4-0.4 0.4-1.1 0.7-1.5 0-0.4 0.4-1.1 0.4-1.5 0.4-1.1 0.4-1.1 0-0.4-0.4 0.4-0.4 0.7-0.7 1.5-0.4 0.4-0.4 0.7-0.7 1.1-0.4-1.1-0.4-2.6-0.7-3.7s-0.4-1.1-0.4 0c0.4 1.9 0.7 3.9 0.7 5.8-0.6-0.7-1.4-1.3-2.2-1.8-0.7-0.7-1.5-1.1-1.8-1.8-0.4-0.4-0.7-0.4-0.4 0.4s1.5 1.5 2.2 2.6 1.8 1.5 1.8 1.8c0.4 0.4 0.4 0.4 0.4 0.7-0.4 0.4-0.7 1.1-1.5 1.5-0.4-0.4-0.4-0.4-0.4-0.7 0 0.4 0 0.1-0.3 0.1zm-23.6 23.7c0.5-0.6 1.1-1.1 1.8-1.5 2.2-1.1 4.8-2.2 7.4-3.3h0.7l0.4 0.7-0.7 0.4c-0.6 0.3-1.2 0.5-1.8 0.4-0.8 0.1-1.5 0.3-2.2 0.7-0.9 0.2-1.5 1-1.5 1.8 0 0.4-0.4 0.7-0.7 1.1l-2.6 1.5h-1.8l1-1.8zm5.5 2.2h-1.1l-2.2-0.4 2.2-1.1 1.1 1.5v-0.4l-0.4-1.1c-0.3-0.7 0-1.5 0.6-1.8 0 0 0.1 0 0.1-0.1 0.7-0.4 1.4-0.7 2.2-0.7 0.4 0 0.4 0.7 0 1.8-0.6 1-1.5 1.7-2.5 2.3zm-9.5 8.4l-0.4-1.1-1.8 2.2-1.5 1.1c-0.5 0.5-1.2 0.7-1.8 0.7l-2.2-1.1 1.1-0.7 0.4 0.4c-0.4 0.7 0 0.7 0.7-0.4l1.8-1.8c0-1.5-0.3-3-0.7-4.4-0.3-1.3-0.8-2.5-1.5-3.7 0-0.4-1.1-0.4-2.9-0.4 1.3-0.4 2.7-0.4 4 0l1.5 0.7 0.7-0.4-1.5-0.7h0.7l0.7 0.7 0.4 0.4c1.4 1.4 2.7 3 3.7 4.8 0.4 0.8 0.4 1.7 0 2.6-0.3 1.1-1.1 1.4-1.4 1.1zm15.4 9.1l0.7 0.4-0.4 0.4-1.8 0.4c-0.8 0.6-1.6 1.1-2.6 1.5l-1.1-0.4-0.4-0.7c0.4-0.4 0.7-0.7 1.1-0.7 0.4-0.3 1-0.4 1.5-0.4l1.5 0.4 1.5-0.9zm-2.2 0c-1.1 0-1.8 0.7-2.2 0.7h-0.7c-0.9-1.1-1.9-2-2.9-2.9l-2.9-2.6c0.7-0.4 1.8 0 3.7 0.4l5 4.4zm9.2-13.8h2.9c2.7-1.5 5.2-3.3 7.4-5.5 2.8-2.2 5.9-4 9.2-5.5 0.7-0.4 0.7-0.7 0-0.7-1-0.3-1.9-0.4-2.9-0.4-0.4 0.4-0.4 0.7 0 0.7h1.5c-2.6 1.5-5.2 2.9-7.4 4.4 0-1.1 0.4-2.9 0.4-5.1-0.1-0.8-0.3-1.5-0.7-2.2-0.4-0.4 0-0.7 1.1-1.1l0.7-0.4v1.5l-1.1-0.4v0.7c0.4 0.5 0.9 0.8 1.5 1.1h5.2c1.8 0 2.9 0.4 2.6 1.5v2.6c0.4 1.9 1.2 3.8 2.2 5.5-0.5 1.1-1.1 2-1.8 2.9l-3.3 2.1c-2.9 2.2-7 4.8-12.2 8-8.5 0.1-16.9-1.2-25-3.7l-1.1-0.4 0.4-0.4c0.4-0.7 1.1-1.1 1.1-1.8 0-2.4-1-4.7-2.9-6.2v-0.4l1.1-0.4c2.5 0 5 0.4 7.4 1.1 2.2 0.4 4.8 1.1 7.7 1.5 1.8 0.5 3.9 0.8 6 1zm-4.8-1.5c-1.1-0.4-2.9-0.4-5.5-1.1l2.2-0.7c0.8 0.4 1.8 0.1 2.2-0.7 0.4 0.6 0.8 1.7 1.1 2.5zm14-19.4c-0.8 0.7-1.1 1.9-0.7 2.9-1.4 0.8-2.6 1.8-3.7 2.9-1 1-1.8 2.1-2.6 3.3-0.3 0.8-1 1.3-1.8 1.5-0.9 0.2-1.8 0.1-2.6-0.4l-0.4 1.5-4.4 2.6-2.2 1.1c0.3-0.7 0.4-1.4 0.4-2.2l0.7-0.7c2.9-1.5 4.8-2.9 5.2-4.4 0.4-1 1-1.9 1.8-2.6 0.6-0.8 1.1-1.6 1.5-2.6v-2.9c0.7 0.7 1.5 1.1 1.8 0.4 0.8-1.7 1.8-3.3 3-4.8 1-1.4 2.1-2.7 3.3-4l2.9-3.3v1.5c-1.7 2.1-3.3 4.3-4.8 6.6-1.8 2.5-3.3 5.1-4.4 8-0.4 1.1-1.2 2-2.2 2.6-0.6 0.3-1.1 0.6-1.5 1.1-0.4 0.7 0 0.7 0.4 0.4 0.4-0.4 0.9-0.8 1.5-1.1 2.4-2 4.5-4.4 6.3-6.9v-2.1l0.7-1.1c0 1.1 0 2.2 0.4 2.2s0.7-0.4 1.1-1.1 1.5-3.3 3.3-6.9c-0.4 0.9-0.4 2 0 2.9-1.1 0.7-1.5 1.8-0.7 3.7l-2.3 1.9zm14.7-14.6c0 1.1-0.4 2.1-1.1 2.9-1.8 2.2-2.6 3.3-2.2 3.7 0.4 1 0.3 2.1-0.4 2.9-1.1 1.4-2.4 2.8-3.7 4 0.4 0.7 0 1.5-1.1 2.2-1.4 0.8-2.9 1.4-4.4 1.8 2.6-1.5 4.5-4 5.2-6.9 0.6-0.6 1.4-1.1 2.2-1.5 0.7-0.4 0.7-0.7 0.4-0.4-0.9 0.3-1.8 0.8-2.6 1.4 0.8-1.8 1.4-3.6 1.8-5.5 1.2-1.3 2.3-2.6 3.3-4 0.7-0.7 0.7-1.1 0-0.4-0.8 1.4-1.8 2.6-2.9 3.7 0.7-1.8 1.1-4 1.8-6.2 0.4-1.5 0-1.5 0-0.7l-0.4 1.5-1.1-2.2 0.7 2.9c-0.4 1.5-0.7 3.3-1.1 4.8-0.6-1.7-1.5-3.3-2.6-4.8-0.7-1.1-1.1-1.1-0.4 0 1.1 1.8 1.9 3.8 2.6 5.8-0.4 1.8-1 3.5-1.8 5.1-0.4-0.7-1.1-1.2-1.8-1.5-0.4-0.4-0.4 0 0 0.4 0.6 0.5 1.1 1.2 1.5 1.8-0.5 1.2-1.2 2.4-2.2 3.3-0.8 0.9-1.6 1.8-2.6 2.6 1.1-1.6 1.5-3.5 1.1-5.4 0-0.4 0.3-0.7 0.7-0.7s0.7-0.3 0.7-0.7c-0.4-0.7-0.7-1.4-0.7-2.2h1.5c0.7-0.4 0.4-0.7 0-1.5-0.8-0.9-1.2-2.1-1.1-3.3 0-0.7 0.4-1.1 1.5-0.7 0.4 0 0.4-0.4 0-1.8l-1-1.5c-0.7-1.8-0.4-2.2 1.1-1.8l1.8 1.1c1.1 0.4 1.8-0.4 1.8-2.2 0-0.4 0.4-0.4 1.1-0.4 0.9 0 1.6-0.6 1.9-1.4 0.7-0.7 1.1 0 1.5 1.8s0.4 3.3 1.8 3.3c-0.8-0.4-0.8 0-0.8 0.7zm1.9-5.8c0 0.4-0.1 0.8-0.4 1.1-0.4 0.4-0.9 0.6-1.5 0.7l-0.7-1.1c0-1.1-0.4-2.1-1.1-2.9 0.4-0.5 0.9-0.7 1.5-0.7 0.4-0.4 0.4 0-0.4 0s-1.1 0.7-1.8 0.7c0.4-1.4 1-2.8 1.8-4 0.4-0.7 0-0.7-0.4 0-0.7 1-1.4 2.1-1.8 3.2-0.4-0.4-0.4-1.1-0.7-1.5 0-0.7-0.4-0.7-0.4 0 0.1 0.8 0.3 1.5 0.7 2.2-1.1 1.5-1.8 2.2-2.2 1.8 0.3-2.2 0.8-4.4 1.5-6.6 1.1-1.1 1.8-1.5 2.6-1.1 1.1-0.7 1.8-1.1 2.6-0.4 0.4 0.7 0.7 1.1 0.4 1.8-0.1 0.8-0.3 1.5-0.7 2.2 0.7 0 1.1 0.4 1.5 1.1-0.3 1.4-1.1 2.6-2.2 3.3 1.3-0.2 1.7 0.2 1.7 0.2z"/>
<path class="st1" d="m16.2 120.3c0.7 0.4 1.5 0.4 1.8-0.4 0.4-0.4 0.4-1 0-1.5l-0.4-0.4c-0.4-0.4-0.4-0.4-0.7 0.4l-0.7 1.9zm-8.5-5.8c0.7 0.7 1.1 1.1 2.2 0 0.4-0.4 0.4-1 0-1.5l-0.4-0.4h-0.3l-1.5 1.9zm12.5 6.2c0-0.7 0.4-1.1-0.4-1.5 0.4 0 0.7 0.3 0.7 0.7 0.3 0.3 0.7 0.4 1.1 0.4 0 0-0.7-0.4-0.7 0-0.1 0.8-0.3 1.5-0.7 2.2l-0.4 2.6 2.2-1.5c0.4-0.4 1.5-1.5 1.5-1.8s0-0.7-0.4-0.7v-0.4l0.7 0.4c0.4 0 0.4 0.4 0.7 0.4-0.7-0.4-1.1 0.4-1.8 0.7l-3.7 3.7-0.4-0.4 1.6-4.8zm-5.1 0.7c0 0.4-0.4 1.1-0.4 1.5s0 0.4 0.4 0.7v0.4l-1.1-1.1c-0.3 0-0.5-0.2-0.7-0.4v-0.4c0.4 0 0.7 0.4 0.7 0 0.4-0.4 0.7-0.7 0.7-1.1l1.5-2.2c0-0.4 0.7-0.7 0.7-1.1s0-0.7-0.4-0.7c0.4 0.4 0.7 0.4 1.1 0.7s0.7 0.4 1.1 0.7c0.8 0.4 1.1 1.4 0.8 2.2v0.4c-0.5 0.8-1.4 1.1-2.2 0.7-0.2 0-0.4-0.2-0.4-0.3-0.4 0-0.4 0-0.4-0.4l-1.4 0.4zm-3.3-5.1c0-0.4 0.7-0.7 0.7-1.1s0-0.7-0.4-0.7h0.4l3.3 2.2-1.1 1.1c0.7-0.7 0.4-1.1-0.4-1.8l-0.4-0.4c0-0.4 0-0.4-0.4 0l-1.1 1.8c0.4 0.5 1 0.5 1.5 0.2 0.2-0.1 0.3-0.3 0.3-0.5-0.4 0.4-0.7 0.7-0.7 1.1s-0.4 0.7-0.7 1.1v-0.4c0.7-0.7 0.4-1.1-0.4-1.5l-1.5 1.9c0 0.4-0.4 0.4-0.4 0.7 0 0.4 0.3 0.7 0.7 0.7 0.6 0.4 1.3 0.4 1.8 0l-0.7 1.5-3.7-2.6v-0.4h0.7c0.4-0.4 0.7-0.7 0.7-1.1l1.8-1.8zm-3.7 2.1c-0.1 0.4 0.1 0.8 0.4 1.1l-0.4-0.4c-0.3 0-0.5-0.2-0.7-0.4v-3.3c0-0.4 0-0.4-0.4-0.7l-0.4 0.7c-0.4 0.4-0.4 0.7-0.7 1.1 0 0.4 0 0.4 0.4 0.7-0.3 0-0.5-0.2-0.7-0.4-0.4-0.4-0.7-0.4-1.1-0.7 0.4 0 0.4 0.4 0.7 0s0.7-0.7 0.7-1.1l1.5-2.2c0.4-0.4 0.4-0.7 0.7-1.1 0-0.4 0-0.4-0.4-0.7 0.4 0.4 0.7 0.7 1.1 0.7s0.7 0.3 0.7 0.7c0.7 0.7 1.5 1.1 0.7 2.2 0 0.7-1.1 1.1-1.8 0.7h-0.3v3.1zm43.1 1.9l-1.1-2.2-0.4 2.6 1.5-0.4zm-19.2 4.3c-0.1 0.4 0.1 0.8 0.4 1.1 0.4 0.4 0.4 0.4 0.7 0.4 0.7-0.4 0.7-0.7 0.7-1.5 0-0.4-0.4-0.7-0.7-1.1s-0.7 0-1.1 0v1.1zm0-1.4c0.2-0.2 0.5-0.3 0.7-0.4 0.4-0.4 0.4-0.7 0.4-1.5 0-0.6-0.4-1-0.9-1.1h-0.6v0.4l0.4 2.6zm-4.8 2.2c-0.1 0.4 0.1 0.8 0.4 1.1 0 0.4 0.4 0.4 0.7 0s1.1-0.4 1.1-1.5c0-0.7-0.4-0.7-0.7-1.1h-1.1v1.5h-0.4zm-0.4-1.5c0.7 0 0.7-0.4 1.1-0.4 0-0.4 0.4-0.7 0.4-1.1 0.1-0.5-0.3-1-0.9-1.1h-0.2c-0.2 0-0.4 0.2-0.4 0.3v2.3zm22.9-2.5c0 0.4-0.4 1.1 0 1.5s0.4 0.4 0.7 0.4v0.4h-1.4c0.4 0 0.7-0.3 0.7-0.7-0.1-0.6 0.1-1.3 0.4-1.8l0.7-4h0.4l2.2 4.4c0 0.4 0.4 0.7 0.7 1.1s0.4 0.4 0.7 0.4v0.4h-1.1c-0.4 0-0.7 0.4-1.1 0.4v-0.4s0.7 0 0.4-0.7 0-0.4 0-0.7l-0.7-1.1-1.8 0.4h-0.8zm-3-3.7l0.4 1.8c-0.4-1.1-1.1-1.8-1.8-1.5-1.5 0-1.5 1.8-1.5 3.3s0.7 2.9 2.6 2.6 1.1-1.1 1.1-2.2l0.4 2.2-0.4-0.4c-0.4 0.4-0.9 0.7-1.5 0.8-1.5 0.4-2.9-0.7-3.3-2.6s0.7-3.7 2.2-3.7c0.6-0.1 1.3 0.1 1.8 0.4v-0.7zm-5.8 2.6c0-0.4-0.4-0.7-0.4-1.1-0.4 0-0.4-0.4-0.7-0.4h-0.4c0.4 0 0.7-0.4 1.1-0.4s0.7-0.4 1.1-0.4v-0.4c-0.4 0-0.4 0.4-0.7 0.4-0.1 0.4 0.1 0.8 0.4 1.1l0.4 2.9c-0.1 0.4 0.1 0.8 0.4 1.1 0 0.4 0.4 0.4 0.7 0.4v0.4h-1.1c-0.4 0-0.7 0.4-1.1 0.4v-0.3c0.4 0 0.7 0 0.7-0.4v-1.1l-0.4-2.2zm-5.2 1.1v-1.5c-0.4-0.4-0.4-0.4-0.7 0v-0.4c0.4 0 0.8-0.1 1.1-0.4h1.1v0.4c-0.4 0-0.7 0-0.7 0.4s0.4 1.1 0.4 1.5l0.4 2.9c0 1.1 0.4 1.5 1.5 1.1 0.4 0 0.8-0.1 1.1-0.4s0.4-0.7 0.4-1.1l0.4-0.4 0.4 1.8h-0.4c-1.4 0-2.7 0.3-4 0.7 0.2-0.2 0.5-0.3 0.7-0.4v-1.5l-0.7-2.6-1-0.1zm-4.8 0.7c0.1-0.4-0.1-0.8-0.4-1.1-0.4-0.4-0.4-0.4-0.7-0.4 0.4 0 0.7-0.4 1.1-0.4h0.7c0.8-0.3 1.8 0.1 2.1 0.9 0 0.1 0.1 0.1 0.1 0.2 0 0.8-0.4 1.5-1.1 1.8 0.4 0 0.8 0.1 1.1 0.4 0.4 0.4 0.7 0.7 0.7 1.1 0 0.6-0.3 1.1-0.7 1.5 0.4 0.4-0.4 0.7-0.7 0.7 0 0.4-0.7 0.4-0.7 0.4-0.5 0-1 0.1-1.5 0.4v-0.4s0.7 0 0.7-0.4v-1.1l-0.7-3.6zm-4.8 1.1c0-0.4-0.4-1.1-0.4-1.5s-0.4-0.4-0.7 0v-0.4h2.2c0.7 0 1.8 0 2.2 1.1 0.4 0.7 0 1.5-0.7 1.5 0.4 0 0.8 0.1 1.1 0.4 0.4 0.4 0.7 0.7 0.7 1.1 0 0.7 0 1.1-0.7 1.5-0.4 0.3-1 0.4-1.5 0.4h-1.1c-0.7 0-0.7 0.4-1.5 0.4v-0.4c0.4 0 0.7 0 0.7-0.4s-0.4-1.1-0.4-1.5l0.1-2.2zm49.7 0.8l-0.4-2.6-1.1 2.6h1.5zm10-0.8v-1.1c-0.2-0.2-0.5-0.3-0.7-0.4v-0.4h2.2v0.4c-0.4 0-0.4 0-0.7 0.4v1.5l0.4 2.6v1.5c0 0.4 0.4 0.4 0.7 0.4h-2.2s0.7 0 0.7-0.4v-1.1l-0.4-3.4zm-5.9-0.3v-1.5c0-0.4-0.4-0.4-0.7-0.4v-0.4c0.4 0 0.7 0.4 1.1 0.4h1.5v0.4s-0.7 0-0.7 0.4c0.1 0.5-0.1 1-0.4 1.5l-0.4 2.9c0 1.1 0 1.5 0.7 1.5s0.7 0.4 1.1 0 0.7-0.7 0.7-1.1h0.4l-0.3 1.8h-0.4c-1.5-0.4-2.9-0.4-4.4-0.7 0.4 0 0.7 0 0.7-0.4-0.1-0.4 0.1-0.8 0.4-1.1l0.7-3.3zm-6.3 1.4c-0.1 0.6-0.4 1.1-0.7 1.5-0.4 0.4 0.4 0.4 0.7 0.7h-0.7c-0.3-0.2-0.7-0.3-1.1-0.4 0.4 0 0.7-0.3 0.7-0.7s0.7-1.1 0.7-1.8l1.8-3.7h0.4l0.7 5.1c0 0.4 0 1.1 0.4 1.1s0.4 0.4 0.7 0.4h-1.1c-0.4 0-0.7-0.4-1.1-0.4v-0.4h0.7v-2.2h-2.2l0.1 0.8zm-0.4-3.3c0-0.7 0-1.1-1.1-1.5s-0.7 0-0.7 0l-0.7 4.4c0 0.7 0 0.7 0.7 1.1v0.4c-0.5 0.1-1-0.1-1.5-0.4h-1.5v-0.4c0.7 0 1.1 0 1.1-0.7l0.7-4.4c-0.2-0.2-0.5-0.3-0.7-0.4-0.7 0-1.1 0-1.5 1.1h-0.4l0.4-1.5 5.2 0.7v1.6zm-7.7-0.7v-1.1c0-0.4-0.4-0.4-0.7-0.4v-0.4c0.4 0 0.7 0.4 1.1 0.4h1.5s-0.7 0-0.7 0.4c0.1 0.4-0.1 0.8-0.4 1.1l-0.4 2.6c0 0.4-0.4 0.7 0 1.1 0 0.4 0.4 0.4 0.7 0.4v0.4c-0.4 0-0.7-0.4-1.1-0.4s-0.8-0.1-1.1-0.4v-0.4c0.4 0 0.7 0 0.7-0.4 0.3-0.3 0.4-0.7 0.4-1.1v-1.8zm36.1-4.7l-2.2-1.5 0.7 2.6 1.5-1.1zm-10.3 7.3l-1.8-1.8 0.4 2.6 1.4-0.8zm9.2-5.5c0 0.4 0.4 1.1 0.4 1.5 0.4 0.4 0.7 0 0.7-0.4v0.7c-0.4 0.4-0.4 0.4-0.7 0.4s-0.4 0.4-0.7 0.4v-0.4c0.4-0.4 0.4-0.4 0.4-0.7-0.4-0.7-0.4-1.1-0.7-1.8l-1.1-4 4.4 2.9c0.2 0.2 0.5 0.3 0.7 0.4 0.2 0.2 0.5 0.2 0.7 0v0.4c-0.4 0-0.7 0.3-0.7 0.7-0.4 0.4-0.7 0.4-0.7 0.7l-0.4-0.4c0-0.4 0.4-0.4 0.4-0.7s-0.4-0.4-0.7-0.4l-0.7-0.7-1.8 1.1 0.5 0.3zm-7.4 1.1c-0.2-0.3-0.7-0.4-1-0.1-0.1 0-0.1 0.1-0.1 0.1v-0.4c0.4 0 0.4 0 0.7-0.4 0.4 0 0.4 0 0.7-0.4l5.9 1.8-1.8-2.2c-0.4-0.4-0.7-0.7-0.7-1.1s-0.7 0-1.1 0c0.2-0.2 0.5-0.3 0.7-0.4 0-0.4 0-0.7 0.4-0.7v0.4c0 0.4-0.4 0.4-0.4 0.7s0.7 1.1 1.1 1.5l2.2 3.3v0.4c-0.4 0-0.7 0-0.7-0.4l-5.9-2.1 1.9 2.5c0.4 0.4 0.7 0.7 0.7 1.1 0.4 0.4 0.7 0 1.1 0 0 0.4-0.4 0.4-0.7 0.7-0.4 0-0.4 0.4-0.7 0.7v-0.4c0.3-0.3 0.4-0.7 0.4-1.1s-0.4-0.7-0.7-1.1l-2-2.4zm-2.9 5.8c-0.1 0.5 0.1 1 0.4 1.5 0 0.4 0.7 0 0.7 0-0.4 0-0.4 0.4-0.7 0.4s-0.4 0.4-0.7 0.4c0.4-0.4 0.4-0.4 0.4-1.1 0.1-0.6 0-1.3-0.4-1.8l-0.7-4 3.7 3.3 0.7 0.7h0.7c-0.4 0-0.7 0.4-1.1 0.7-0.4 0-0.7 0.4-1.1 0.7v-0.4c0.4 0 0.7-0.4 0.4-0.7 0-0.4-0.4-0.4-0.7-0.7l-0.7-0.7-1.8 0.7v0.4l0.9 0.6z"/>
<path class="st1" d="m14.4 81.9c-0.2-1-0.6-2-1.1-2.9v-0.4l3.3-1.8c-0.4-1.6-0.6-3.1-0.7-4.8l-3.7-0.8v-5.8l3.7-0.7c0.1-1.6 0.3-3.2 0.7-4.8l-1.8-1.1h1.1l1.5 0.7v0.5c-0.4 1.7-0.7 3.4-0.7 5.1v0.4l-3.7 0.7v4.4l3.7 0.7v0.4c0 1.7 0.3 3.4 0.7 5.1v0.4l-3.4 1.8 0.7 2.2-0.3 0.7zm6.6 11l1.1 1.1 3.3-1.5h0.4c1.1 1.3 2.4 2.5 3.7 3.7l-1.5 3.6c1 1 2.1 1.8 3.3 2.6l2.9-2.6h0.4c1.5 1.1 3.1 1.9 4.8 2.6h0.4l-0.4 4c1.1 0.4 3.3 1.1 4 1.5l1.8-3.3h0.4c1.7 0.4 3.4 0.7 5.2 0.8h0.4l0.7 3.7h4.4l0.7-3.7h0.4c1.7-0.1 3.5-0.3 5.2-0.7l1.8 3.3 4-1.5-0.4-3.7h0.4c1.7-0.7 3.3-1.6 4.8-2.6l0.4-0.4 2.9 2.6 3.7-2.6-1.5-3.7h0.4c1.4-1 2.6-2.3 3.7-3.7v-0.4l3.7 1.8c1-1.2 1.8-2.4 2.6-3.7l-2.6-2.9v-0.2c0.7-1.5 1.8-2.9 2.6-4.8v-0.4l3.7 0.4c0.4-1.1 1.1-3.3 1.5-4l-3.3-1.8v-0.4c0.4-1.7 0.7-3.4 0.7-5.1v-0.4l3.7-0.7v-4.4l-3.7-0.7v-0.4c-0.1-1.7-0.3-3.4-0.7-5.1v-0.4l3.3-1.8c-0.4-1.1-1.1-3.3-1.5-4l-3.7 0.4v-0.4c-0.6-1.7-1.5-3.3-2.6-4.8v0.4l2.6-2.9c-0.7-0.7-1.8-2.9-2.6-3.6l-3.7 1.5c-1-1.4-2.3-2.6-3.7-3.6l-0.4-0.4 1.5-3.6-3.7-2.6-2.9 2.6h-0.4c-1.5-0.7-3.3-1.5-4.8-2.2h-0.4l0.4-3.6c-0.7-0.4-3.3-1.1-4-1.5l-1.8 3.3h-0.4c-1.7-0.4-3.4-0.7-5.2-0.7h-0.4l-0.6-3.8h-4l-0.7 3.6h-0.5c-1.7 0.1-3.5 0.3-5.2 0.7h-0.4l-1.8-3.3c-0.7 0.4-3.3 1.1-4 1.5l0.4 3.6h-0.4l-4.4 2.3h-0.4l-2.9-2.6c-0.7 0.4-1.1 1.1-1.5 1.5v-1.1l1.5-1.1h0.3l2.6 2.6 4.4-2.2-0.7-4h0.4c1.5-0.7 3.1-1.1 4.8-1.5h0.4l1.8 3.3c1.6-0.4 3.2-0.7 4.8-0.7l0.7-3.6h5.5l0.7 3.6c1.6 0.1 3.2 0.3 4.8 0.7l1.8-3.3h0.4c0.7 0.4 4 1.1 4.8 1.5h0.4v3.7l4.5 2.2 2.9-2.5h0.4c1.2 1.1 2.4 2 3.7 2.9l-1.5 3.6 3.3 3.3 3.7-1.5v0.4c0.4 0.7 2.6 3.3 2.9 4v0.4l-2.6 2.9 2.2 4.4 3.7-0.4v0.4c0.7 1.5 1.1 3.1 1.5 4.8v-0.3l-3.3 1.8c0.4 1.6 0.7 3.1 0.7 4.8l3.7 0.7v6.4l-3.4 0.7c-0.1 1.6-0.3 3.2-0.7 4.8l3.3 1.8v0.4c-0.3 1.6-0.8 3.2-1.5 4.8v0.4l-4-0.4-2.2 4.4 2.6 2.9v0.7c-0.4 0.7-2.6 3.3-2.9 4v0.4l-3.7-1.5-3.3 3.3 1.8 3.7h-0.4c-0.7 0.4-3.3 2.6-4 2.9l-0.4 0.4-3-3.3-4.4 2.2 0.4 4h-0.4l-4.8 1.5h-0.4l-1.8-3.3c-1.6 0.4-3.2 0.7-4.8 0.7l-0.7 3.7h-5.8l-0.7-3.7c-1.5-0.4-3.3-0.4-4.8-0.7l-1.8 3.3h-0.4c-1.5-0.7-3.1-1.1-4.8-1.5h-0.4l0.4-4-4.4-2.2-2.9 2.6h0.7c-0.7-0.4-3.3-2.6-4-2.9h-0.4l1.4-3.6-3.4-3.5-3.7 1.5v-0.4l-0.7-1.5v-0.7z"/>
<path class="st1" d="m54.1 99.1c-4.5-0.1-8.8-1.1-12.9-2.9h-0.7l13.6-16.8 13.2 16.8-0.7 0.4c-3.9 1.7-8.2 2.5-12.5 2.5zm-12.1-3.3c7.6 3.3 16.3 3.3 23.9 0l-11.8-15-12.1 15zm34.6-6.2l-12.2-17.9 20.2-7.3v0.7c1.1 8.8-1.9 17.7-8.1 24.1l0.1 0.4zm-10.7-17.5l10.7 16.1c5.4-6.2 8.1-14.2 7.3-22.3 0 0-18 6.2-18 6.2zm-34.3 17.5l-0.4-0.4c-5.9-6.5-8.8-15.3-7.7-24.1v-0.7l20.2 7.7-12.1 17.5zm-7.3-24.1c-0.8 8.1 1.9 16.2 7.4 22.3l11-15.7s-18.4-6.6-18.4-6.6zm36.1-5.8l-0.7-21.5h0.7c8.7 1.8 16.2 7.2 20.6 15l0.4 0.4-21 6.1zm0.3-20.1l0.7 19 18.8-5.1c-4.4-7.1-11.4-12-19.5-13.9zm-13.2 20.1l-20.6-6.2 0.4-0.4c4.4-7.7 11.9-13 20.6-14.6h0.7l-1.1 21.2zm-19.2-6.6l18.4 5.5 0.7-19c-8 1.4-14.6 6.5-19.1 13.5z"/>
<path class="st1" d="m54.1 40.7l-6.6 18.6v0.4h-0.4l-19.9 0.3 15.8 12 0.4 0.4v0.4l-5.5 18.6 16.2-11 0.4-0.4 0.4 0.4 16.2 11-5.5-18.6v-1.1l0.4-0.4 15.8-12-19.9-0.4h-0.4v-0.4l-7.4-17.8zm-7.3 17.9l7-19.7 0.4-1.1 0.4 1.1 7 19.4 20.6 0.4h1.5l-1.1 0.7-16.7 12.3 5.9 19.7 0.4 1.1-1.2-0.7-16.9-11.7-16.9 11.7-1.1 0.7 0.4-1.5 5.9-19.8-16.6-11.5-1.1-0.7h1.1l21-0.4z"/>
<path class="st1" d="m17.7 99.5"/>
<path class="st1" d="m15.8 96.2l1.8 3.3-1.8-3.3z"/>
</svg>
