<svg width="24" height="24" viewBox="0 0 24 24" version="1.1" xmlns="http://www.w3.org/2000/svg" xmlns:xlink="http://www.w3.org/1999/xlink">
<title>icon share over</title>
<desc>Created using Figma</desc>
<g id="Canvas" transform="translate(-8386 1165)">
<g id="icon share over">
<g id="Icon-share hover">
<g id="Combined Shape">
<use xlink:href="#path0_fill" transform="translate(8386 -1165)" fill="#00264C"/>
</g>
</g>
</g>
</g>
<defs>
<path id="path0_fill" d="M 10.6986 14.6794L 11.8121 15.2757L 18.5049 18.7184C 19.0826 18.0831 19.9158 17.6842 20.8421 17.6842C 22.5862 17.6842 24 19.098 24 20.8421C 24 22.5862 22.5862 24 20.8421 24C 19.098 24 17.6842 22.5862 17.6842 20.8421C 17.6842 20.4845 17.7437 20.1408 17.8532 19.8203L 9.96554 15.7392C 8.92358 16.9312 7.39183 17.6842 5.68421 17.6842C 2.54491 17.6842 0 15.1393 0 12C 0 8.8607 2.54491 6.31579 5.68421 6.31579C 6.88018 6.31579 7.98988 6.68515 8.90547 7.31601L 11.7542 4.67161C 11.5082 4.22216 11.3684 3.70636 11.3684 3.15789C 11.3684 1.41384 12.7823 0 14.5263 0C 16.2704 0 17.6842 1.41384 17.6842 3.15789C 17.6842 4.90195 16.2704 6.31579 14.5263 6.31579C 13.7831 6.31579 13.0998 6.05904 12.5604 5.62939L 9.85638 8.13949C 10.7948 9.15322 11.3684 10.5096 11.3684 12C 11.3684 12.9118 11.1538 13.7734 10.7722 14.5371L 10.6986 14.6794Z"/>
</defs>
</svg>
